<?xml version="1.0" encoding="utf-8"?>
<!-- Generator: Adobe Illustrator 21.0.0, SVG Export Plug-In . SVG Version: 6.00 Build 0)  -->
<svg version="1.1" id="Layer_1" xmlns="http://www.w3.org/2000/svg" xmlns:xlink="http://www.w3.org/1999/xlink" x="0px" y="0px"
	 viewBox="0 0 500 500" style="enable-background:new 0 0 500 500;" xml:space="preserve">
<rect style="fill:#43BA9E;" width="500" height="500"/>
<g style="opacity:2.000000e-02;">
	<g>
		<g>
			<g>
				
					<rect x="34.7" y="157.1" transform="matrix(0.9883 -0.1526 0.1526 0.9883 -26.8022 12.5997)" style="fill:none;" width="68" height="47.6"/>
				<g>
					<path d="M97,154.8c-4.3-1.1-8.5-1.1-12.6-0.5c-12.9,2-24.9,10.5-37.8,12.5c-3.2,0.5-6.5,0.6-10,0.1c-0.4-0.1-0.8-0.1-1.1,0
						c-1.8,0.3-3.2,1.9-2.9,3.9l5.1,33.3c0.2,1.3,1.2,2.5,2.5,2.8c4.3,1.1,8.5,1.1,12.6,0.5c12.9-2,24.9-10.5,37.8-12.5
						c3.2-0.5,6.5-0.6,10-0.1c0.4,0.1,0.8,0.1,1.1,0c1.8-0.3,3.2-1.9,2.9-3.9l-5.1-33.3C99.3,156.3,98.3,155.2,97,154.8z
						 M38.1,172.3c2.2,0.2,4.4,0.1,6.7-0.1c-0.1,3.2-2.5,5.9-5.8,6.4L38.1,172.3z M42.7,202.2l-0.8-5c3.6-0.6,7,1.9,7.7,5.4
						C47.2,202.8,45,202.7,42.7,202.2z M70.2,191c-4.6,0.7-9.1-3.2-10-8.8c-0.9-5.6,2.2-10.7,6.8-11.4s9.1,3.2,10,8.8
						C77.9,185.1,74.9,190.2,70.2,191z M95.4,164.7c-3.3,0.1-6.2-2.2-6.9-5.6c2.1-0.1,4.1,0,6.1,0.4L95.4,164.7z M99.2,189.5
						c-1.9-0.2-3.9-0.1-5.8,0c0.2-2.8,2.1-5.3,4.9-6.1L99.2,189.5z"/>
				</g>
			</g>
		</g>
	</g>
	<g>
		<g>
			<g>
				
					<rect x="103.3" y="33.3" transform="matrix(0.9219 -0.3875 0.3875 0.9219 -11.4089 57.6765)" style="fill:none;" width="68" height="47.6"/>
				<g>
					<path d="M158.5,25c-4.5,0-8.5,1-12.3,2.6c-12.1,5.1-21.6,16.2-33.6,21.3c-3,1.3-6.2,2.2-9.6,2.5c-0.4,0-0.7,0.1-1.1,0.3
						c-1.7,0.7-2.6,2.6-1.8,4.4l13.1,31.1c0.5,1.2,1.7,2.1,3.1,2.1c4.5,0,8.5-1,12.3-2.6c12.1-5.1,21.6-16.2,33.6-21.3
						c3-1.3,6.2-2.2,9.6-2.5c0.4,0,0.7-0.1,1.1-0.3c1.7-0.7,2.6-2.6,1.8-4.4l-13.1-31.1C161.1,25.9,159.9,25,158.5,25z M105.6,56.2
						c2.2-0.3,4.3-1,6.5-1.7c0.6,3.1-1,6.4-4,7.6L105.6,56.2z M117.3,84.1l-2-4.7c3.4-1.4,7.2,0.1,8.8,3.4
						C121.8,83.6,119.6,84,117.3,84.1z M141.3,66.5c-4.3,1.8-9.6-0.9-11.8-6.1c-2.2-5.2-0.4-10.9,3.9-12.7s9.6,0.9,11.8,6.1
						C147.4,59,145.6,64.7,141.3,66.5z M159.4,34.9c-3.2,0.9-6.6-0.7-8-3.7c2-0.6,4-1,6-1.1L159.4,34.9z M169.1,58.1
						c-1.9,0.3-3.8,0.8-5.7,1.4c-0.5-2.8,0.8-5.6,3.3-7.1L169.1,58.1z"/>
				</g>
			</g>
		</g>
	</g>
	<g>
		<g>
			<g>
				
					<rect x="39.3" y="402.4" transform="matrix(0.9456 -0.3252 0.3252 0.9456 -134.6157 47.014)" style="fill:none;" width="68" height="47.6"/>
				<g>
					<path d="M96.6,395.6c-4.5-0.3-8.6,0.4-12.5,1.8c-12.4,4.3-22.6,14.8-35,19c-3.1,1.1-6.3,1.7-9.8,1.8c-0.4,0-0.8,0.1-1.1,0.2
						c-1.7,0.6-2.8,2.5-2.1,4.3l11,31.9c0.4,1.3,1.6,2.2,2.9,2.3c4.5,0.3,8.6-0.4,12.5-1.8c12.4-4.3,22.6-14.8,35-19
						c3.1-1.1,6.3-1.7,9.8-1.8c0.4,0,0.8-0.1,1.1-0.2c1.7-0.6,2.8-2.5,2.1-4.3l-11-31.9C99.1,396.6,98,395.6,96.6,395.6z
						 M41.7,423.2c2.2-0.2,4.4-0.7,6.6-1.3c0.4,3.2-1.4,6.3-4.5,7.3L41.7,423.2z M51.6,451.8l-1.7-4.8c3.5-1.2,7.2,0.6,8.5,4
						C56.1,451.6,53.8,451.8,51.6,451.8z M76.6,435.9c-4.4,1.5-9.5-1.6-11.4-6.9c-1.8-5.3,0.3-10.9,4.7-12.4
						c4.4-1.5,9.5,1.6,11.4,6.9C83.2,428.8,81.1,434.3,76.6,435.9z M96.8,405.5c-3.2,0.7-6.5-1.1-7.7-4.3c2-0.5,4-0.7,6-0.7
						L96.8,405.5z M104.9,429.2c-1.9,0.2-3.8,0.5-5.7,1c-0.3-2.8,1.2-5.6,3.8-6.8L104.9,429.2z"/>
				</g>
			</g>
		</g>
	</g>
	<g>
		<g>
			<g>
				
					<rect x="200.7" y="247.1" transform="matrix(0.9654 -0.2608 0.2608 0.9654 -62.5132 70.5655)" style="fill:none;" width="68" height="47.6"/>
				<g>
					<path d="M260,241.8c-4.4-0.6-8.6-0.2-12.6,0.9c-12.6,3.4-23.5,13.2-36.2,16.6c-3.2,0.9-6.4,1.3-9.9,1.2c-0.4,0-0.8,0-1.1,0.1
						c-1.8,0.5-2.9,2.3-2.4,4.2l8.8,32.5c0.3,1.3,1.4,2.3,2.7,2.5c4.4,0.6,8.6,0.2,12.6-0.9c12.6-3.4,23.5-13.2,36.2-16.6
						c3.2-0.9,6.4-1.3,9.9-1.2c0.4,0,0.8,0,1.1-0.1c1.8-0.5,2.9-2.3,2.4-4.2l-8.8-32.5C262.4,243,261.3,242,260,241.8z M203.3,265.7
						c2.2,0,4.4-0.4,6.7-0.8c0.2,3.2-1.8,6.2-5,7L203.3,265.7z M211.2,294.9l-1.3-4.9c3.5-1,7.1,1.1,8.2,4.5
						C215.8,295,213.5,295.1,211.2,294.9z M237.3,280.7c-4.5,1.2-9.4-2.2-10.9-7.6c-1.5-5.4,1-10.8,5.5-12.1
						c4.5-1.2,9.4,2.2,10.9,7.6C244.3,274.1,241.9,279.5,237.3,280.7z M259.5,251.8c-3.3,0.5-6.5-1.5-7.4-4.8
						c2.1-0.3,4.1-0.4,6.1-0.2L259.5,251.8z M266,276c-1.9,0-3.9,0.3-5.8,0.6c-0.1-2.8,1.5-5.5,4.2-6.6L266,276z"/>
				</g>
			</g>
		</g>
	</g>
	<g>
		<g>
			<g>
				
					<rect x="256" y="52" transform="matrix(0.9763 -0.2165 0.2165 0.9763 -9.5322 64.5974)" style="fill:none;" width="68" height="47.6"/>
				<g>
					<path d="M316.6,48c-4.4-0.8-8.6-0.5-12.6,0.3c-12.8,2.8-24.1,12.1-36.9,15c-3.2,0.7-6.5,1-9.9,0.7c-0.4,0-0.8,0-1.1,0.1
						c-1.8,0.4-3,2.1-2.6,4l7.3,32.9c0.3,1.3,1.3,2.4,2.6,2.6c4.4,0.8,8.6,0.5,12.6-0.3c12.8-2.8,24.1-12.1,36.9-15
						c3.2-0.7,6.5-1,9.9-0.7c0.4,0,0.8,0,1.1-0.1c1.8-0.4,3-2.1,2.6-4l-7.3-32.9C318.9,49.3,317.9,48.2,316.6,48z M258.9,69.2
						c2.2,0.1,4.4-0.2,6.7-0.5c0.1,3.2-2.1,6.1-5.3,6.8L258.9,69.2z M265.5,98.8l-1.1-5c3.6-0.8,7.1,1.4,8,4.9
						C270,99.1,267.8,99.1,265.5,98.8z M292.2,85.8c-4.6,1-9.3-2.6-10.5-8.1c-1.2-5.5,1.5-10.8,6.1-11.8c4.6-1,9.3,2.6,10.5,8.1
						C299.5,79.5,296.8,84.7,292.2,85.8z M315.6,57.9c-3.3,0.3-6.4-1.8-7.2-5.1c2.1-0.2,4.1-0.2,6.1,0L315.6,57.9z M321.1,82.4
						c-1.9-0.1-3.9,0.1-5.8,0.4c0-2.8,1.8-5.4,4.5-6.4L321.1,82.4z"/>
				</g>
			</g>
		</g>
	</g>
	<g>
		<g>
			<g>
				
					<rect x="378" y="389" transform="matrix(0.8818 -0.4717 0.4717 0.8818 -145.9943 243.142)" style="fill:none;" width="68" height="47.6"/>
				<g>
					<path d="M430.1,378.8c-4.4,0.4-8.4,1.8-12,3.7c-11.5,6.2-20,18.2-31.5,24.4c-2.9,1.5-6,2.7-9.4,3.4c-0.4,0.1-0.7,0.2-1.1,0.4
						c-1.6,0.9-2.4,2.9-1.4,4.6l15.9,29.7c0.6,1.2,1.9,1.9,3.2,1.8c4.5-0.4,8.4-1.8,12-3.7c11.5-6.2,20-18.2,31.5-24.4
						c2.9-1.5,6-2.7,9.4-3.4c0.4-0.1,0.7-0.2,1.1-0.4c1.6-0.9,2.4-2.9,1.4-4.6l-15.9-29.7C432.7,379.4,431.4,378.7,430.1,378.8z
						 M380.3,414.8c2.1-0.5,4.2-1.4,6.3-2.3c0.9,3-0.4,6.4-3.3,8L380.3,414.8z M394.6,441.5l-2.4-4.5c3.2-1.7,7.2-0.6,9,2.6
						C399,440.6,396.8,441.2,394.6,441.5z M416.8,421.8c-4.1,2.2-9.6,0-12.3-5c-2.7-5-1.5-10.8,2.7-13c4.1-2.2,9.6,0,12.3,5
						C422.2,413.7,420.9,419.6,416.8,421.8z M431.9,388.6c-3.1,1.2-6.6,0-8.3-3c1.9-0.8,3.9-1.3,5.9-1.6L431.9,388.6z M443.7,410.8
						c-1.9,0.5-3.7,1.1-5.5,1.9c-0.8-2.7,0.3-5.7,2.6-7.3L443.7,410.8z"/>
				</g>
			</g>
		</g>
	</g>
	<g>
		<g>
			<g>
				
					<rect x="306.7" y="163" transform="matrix(0.7664 -0.6424 0.6424 0.7664 -40.4137 262.4777)" style="fill:none;" width="68" height="47.6"/>
				<g>
					<path d="M351.4,149.8c-4.3,1.3-7.9,3.5-11,6.1c-10,8.4-15.8,21.9-25.8,30.3c-2.5,2.1-5.3,3.9-8.5,5.2c-0.4,0.1-0.7,0.3-1,0.6
						c-1.4,1.2-1.7,3.3-0.5,4.8l21.7,25.8c0.9,1,2.3,1.5,3.5,1.1c4.3-1.3,7.9-3.5,11-6.1c10-8.4,15.8-21.9,25.8-30.3
						c2.5-2.1,5.3-3.9,8.5-5.2c0.4-0.1,0.7-0.3,1-0.6c1.4-1.2,1.7-3.3,0.5-4.8L355,151C354.1,149.9,352.7,149.4,351.4,149.8z
						 M310.1,195.3c2-1,3.9-2.2,5.7-3.6c1.5,2.8,0.9,6.4-1.6,8.5L310.1,195.3z M329.5,218.5l-3.3-3.9c2.8-2.3,6.9-2,9.4,0.7
						C333.7,216.6,331.7,217.7,329.5,218.5z M347.2,194.6c-3.6,3-9.4,2-13.1-2.4c-3.6-4.3-3.6-10.3,0-13.3s9.4-2,13.1,2.4
						C350.8,185.7,350.8,191.6,347.2,194.6z M355.1,159.1c-2.8,1.8-6.5,1.3-8.7-1.2c1.7-1.2,3.5-2.1,5.4-2.8L355.1,159.1z
						 M371.3,178.3c-1.7,0.8-3.4,1.9-5,3c-1.3-2.5-0.9-5.6,1.1-7.7L371.3,178.3z"/>
				</g>
			</g>
		</g>
	</g>
	<g>
		<g>
			<g>
				
					<rect x="103.3" y="243.6" transform="matrix(0.7104 -0.7038 0.7038 0.7104 -148.4214 174.084)" style="fill:none;" width="68" height="47.6"/>
				<g>
					<path d="M145,229.7c-4.1,1.7-7.5,4.1-10.5,7c-9.3,9.2-13.9,23.1-23.2,32.3c-2.3,2.3-5,4.3-8,5.9c-0.3,0.2-0.6,0.4-0.9,0.7
						c-1.3,1.3-1.4,3.4-0.1,4.8l23.7,23.9c0.9,1,2.4,1.3,3.6,0.8c4.1-1.7,7.5-4.1,10.5-7c9.3-9.2,13.9-23.1,23.2-32.3
						c2.3-2.3,5-4.3,8-5.9c0.3-0.2,0.6-0.4,0.9-0.7c1.3-1.3,1.4-3.4,0.1-4.8l-23.7-23.9C147.7,229.5,146.2,229.2,145,229.7z
						 M107.5,278.4c1.9-1.1,3.7-2.5,5.4-4c1.8,2.7,1.5,6.3-0.9,8.6L107.5,278.4z M128.9,299.9l-3.6-3.6c2.6-2.6,6.7-2.6,9.4-0.1
						C132.8,297.7,130.9,299,128.9,299.9z M144.5,274.6c-3.3,3.3-9.3,2.7-13.2-1.3c-4-4-4.5-9.9-1.1-13.2c3.3-3.3,9.3-2.7,13.2,1.3
						C147.3,265.4,147.8,271.3,144.5,274.6z M149.5,238.6c-2.6,2-6.4,1.9-8.8-0.5c1.6-1.3,3.3-2.4,5.2-3.2L149.5,238.6z
						 M167.1,256.4c-1.7,1-3.2,2.2-4.7,3.4c-1.5-2.4-1.4-5.5,0.4-7.8L167.1,256.4z"/>
				</g>
			</g>
		</g>
	</g>
	<g>
		<g>
			<g>
				
					<rect x="414.7" y="209.4" transform="matrix(0.7355 -0.6776 0.6776 0.7355 -39.3301 365.7043)" style="fill:none;" width="68" height="47.6"/>
				<g>
					<path d="M457.7,195.8c-4.2,1.5-7.7,3.8-10.7,6.6c-9.6,8.9-14.8,22.6-24.4,31.5c-2.4,2.2-5.1,4.1-8.2,5.6
						c-0.4,0.2-0.7,0.4-0.9,0.6c-1.3,1.2-1.6,3.4-0.2,4.8l22.8,24.8c0.9,1,2.3,1.4,3.6,0.9c4.2-1.5,7.7-3.8,10.7-6.6
						c9.6-8.9,14.8-22.6,24.4-31.5c2.4-2.2,5.1-4.1,8.2-5.6c0.3-0.2,0.7-0.4,0.9-0.6c1.3-1.2,1.6-3.4,0.2-4.8l-22.8-24.8
						C460.4,195.7,458.9,195.3,457.7,195.8z M418.5,243.1c1.9-1.1,3.8-2.4,5.5-3.8c1.7,2.7,1.2,6.3-1.2,8.5L418.5,243.1z M439,265.4
						l-3.4-3.7c2.7-2.5,6.8-2.3,9.4,0.2C443.1,263.4,441.1,264.5,439,265.4z M455.6,240.7c-3.5,3.2-9.3,2.4-13.2-1.7
						c-3.8-4.1-4.1-10.1-0.7-13.3c3.5-3.2,9.3-2.4,13.2,1.7C458.7,231.6,459,237.5,455.6,240.7z M461.8,204.9
						c-2.7,1.9-6.4,1.6-8.8-0.8c1.7-1.2,3.4-2.3,5.3-3L461.8,204.9z M478.8,223.3c-1.7,0.9-3.3,2-4.9,3.3c-1.4-2.5-1.2-5.6,0.7-7.8
						L478.8,223.3z"/>
				</g>
			</g>
		</g>
	</g>
	<g>
		<g>
			<g>
				
					<rect x="374.7" y="25.3" transform="matrix(0.7953 -0.6063 0.6063 0.7953 53.8945 257.8197)" style="fill:none;" width="68" height="47.6"/>
				<g>
					<path d="M421.1,12.7c-4.3,1.1-8,3.1-11.3,5.6c-10.4,7.9-16.8,21.1-27.2,29.1c-2.6,2-5.5,3.6-8.7,4.8c-0.4,0.1-0.7,0.3-1,0.5
						c-1.5,1.1-1.9,3.2-0.7,4.8l20.4,26.8c0.8,1.1,2.2,1.6,3.5,1.3c4.3-1.1,8-3.1,11.3-5.6c10.4-7.9,16.8-21.1,27.2-29.1
						c2.6-2,5.5-3.6,8.7-4.8c0.4-0.1,0.7-0.3,1-0.5c1.5-1.1,1.9-3.2,0.7-4.8L424.6,14C423.8,12.9,422.4,12.4,421.1,12.7z
						 M377.7,56.2c2-0.9,4-2,5.9-3.3c1.4,2.9,0.6,6.4-2,8.4L377.7,56.2z M396.1,80.3l-3.1-4c2.9-2.2,7-1.7,9.3,1.1
						C400.3,78.6,398.2,79.6,396.1,80.3z M414.8,57.2c-3.7,2.8-9.5,1.5-12.9-3c-3.4-4.5-3.2-10.4,0.6-13.3c3.7-2.8,9.5-1.5,12.9,3
						C418.8,48.4,418.6,54.4,414.8,57.2z M424.4,22.1c-2.9,1.7-6.5,1-8.7-1.6c1.8-1.1,3.6-1.9,5.5-2.5L424.4,22.1z M439.6,42.1
						c-1.8,0.8-3.5,1.7-5.1,2.8c-1.2-2.6-0.6-5.6,1.4-7.7L439.6,42.1z"/>
				</g>
			</g>
		</g>
	</g>
	<g>
		<g>
			<g>
				
					<rect x="228.7" y="429.1" transform="matrix(0.9941 -0.1084 0.1084 0.9941 -47.5363 31.1318)" style="fill:none;" width="68" height="47.6"/>
				<g>
					<path d="M292.2,428.2c-4.3-1.3-8.5-1.5-12.6-1c-13,1.4-25.3,9.4-38.3,10.8c-3.3,0.4-6.6,0.3-9.9-0.4c-0.4-0.1-0.8-0.1-1.1-0.1
						c-1.8,0.2-3.3,1.8-3,3.7l3.7,33.5c0.1,1.3,1,2.5,2.3,2.9c4.3,1.3,8.5,1.5,12.6,1c13-1.4,25.3-9.4,38.3-10.8
						c3.3-0.4,6.6-0.3,9.9,0.4c0.4,0.1,0.8,0.1,1.1,0.1c1.8-0.2,3.3-1.8,3-3.7l-3.7-33.5C294.3,429.7,293.4,428.6,292.2,428.2z
						 M232.5,443c2.2,0.3,4.4,0.3,6.7,0.2c-0.3,3.2-2.8,5.8-6,6.2L232.5,443z M235.8,473.1l-0.6-5c3.6-0.4,6.9,2.2,7.4,5.8
						C240.3,473.9,238,473.6,235.8,473.1z M263.8,463.1c-4.7,0.5-8.9-3.6-9.6-9.2c-0.6-5.6,2.7-10.6,7.3-11.1
						c4.7-0.5,8.9,3.6,9.6,9.2C271.7,457.6,268.4,462.6,263.8,463.1z M290.1,437.9c-3.3-0.1-6.1-2.5-6.6-5.9c2.1,0,4.1,0.2,6,0.7
						L290.1,437.9z M292.8,462.9c-1.9-0.3-3.9-0.3-5.8-0.3c0.3-2.8,2.4-5.2,5.2-5.8L292.8,462.9z"/>
				</g>
			</g>
		</g>
	</g>
</g>
</svg>
