<?xml version="1.0" encoding="utf-8"?>
<!-- Generator: Adobe Illustrator 21.0.0, SVG Export Plug-In . SVG Version: 6.00 Build 0)  -->
<svg version="1.1" id="Layer_1" xmlns="http://www.w3.org/2000/svg" xmlns:xlink="http://www.w3.org/1999/xlink" x="0px" y="0px"
	 viewBox="0 0 500 500" style="enable-background:new 0 0 500 500;" xml:space="preserve">
<style type="text/css">
	.st0{fill:#43BA9E;}
	.st1{fill:#FFFFFF;}
	.st2{fill:#328B77;}
</style>
<circle class="st0" cx="250" cy="250" r="231.5"/>
<g>
	<g>
		<path class="st1" d="M191.1,263.3h-73c3.1,8.1,10.4,12.3,21.1,12.3c9.6,0,15-2.5,21.9-7.7l22.7,22.9c-10.2,11.1-25,16.9-45.9,16.9
			c-38.6,0-63.6-23.2-63.6-54.6c0-31.9,25.5-54.4,59.5-54.4c31.1,0,57.8,18.8,57.8,54.4C191.7,256.1,191.3,260.2,191.1,263.3z
			 M117.4,242.3h33.8c-1.7-8.8-8.1-14-16.9-14C125.2,228.3,119.1,233.5,117.4,242.3z"/>
		<path class="st1" d="M316.6,263.3h-73c3.1,8.1,10.4,12.3,21.1,12.3c9.6,0,15-2.5,21.9-7.7l22.7,22.9c-10.2,11.1-25,16.9-45.9,16.9
			c-38.6,0-63.6-23.2-63.6-54.6c0-31.9,25.5-54.4,59.5-54.4c31.1,0,57.8,18.8,57.8,54.4C317.1,256.1,316.7,260.2,316.6,263.3z
			 M242.8,242.3h33.8c-1.7-8.8-8.1-14-16.9-14C250.7,228.3,244.5,233.5,242.8,242.3z"/>
		<path class="st1" d="M426.2,274v31.7H326v-25l43.4-48.4h-41.9v-31.7h96.6v25L380.7,274H426.2z"/>
	</g>
	<g>
		<g>
			<path class="st2" d="M206.1,278.3h-73c3.1,8.1,10.4,12.3,21.1,12.3c9.6,0,15-2.5,21.9-7.7l22.7,22.9
				c-10.2,11.1-25,16.9-45.9,16.9c-38.6,0-63.6-23.2-63.6-54.6c0-31.9,25.5-54.4,59.5-54.4c31.1,0,57.8,18.8,57.8,54.4
				C206.7,271.1,206.3,275.2,206.1,278.3z M132.4,257.3h33.8c-1.7-8.8-8.1-14-16.9-14C140.2,243.3,134.1,248.5,132.4,257.3z"/>
			<path class="st2" d="M331.6,278.3h-73c3.1,8.1,10.4,12.3,21.1,12.3c9.6,0,15-2.5,21.9-7.7l22.7,22.9
				c-10.2,11.1-25,16.9-45.9,16.9c-38.6,0-63.6-23.2-63.6-54.6c0-31.9,25.5-54.4,59.5-54.4c31.1,0,57.8,18.8,57.8,54.4
				C332.1,271.1,331.7,275.2,331.6,278.3z M257.8,257.3h33.8c-1.7-8.8-8.1-14-16.9-14C265.7,243.3,259.5,248.5,257.8,257.3z"/>
			<path class="st2" d="M441.2,289v31.7H341v-25l43.4-48.4h-41.9v-31.7h96.6v25L395.7,289H441.2z"/>
		</g>
		<g>
			<path class="st2" d="M205.6,277.8h-73c3.1,8.1,10.4,12.3,21.1,12.3c9.6,0,15-2.5,21.9-7.7l22.7,22.9
				c-10.2,11.1-25,16.9-45.9,16.9c-38.6,0-63.6-23.2-63.6-54.6c0-31.9,25.5-54.4,59.5-54.4c31.1,0,57.8,18.8,57.8,54.4
				C206.2,270.6,205.8,274.7,205.6,277.8z M131.9,256.8h33.8c-1.7-8.8-8.1-14-16.9-14C139.7,242.8,133.6,248,131.9,256.8z"/>
			<path class="st2" d="M331.1,277.8h-73c3.1,8.1,10.4,12.3,21.1,12.3c9.6,0,15-2.5,21.9-7.7l22.7,22.9
				c-10.2,11.1-25,16.9-45.9,16.9c-38.6,0-63.6-23.2-63.6-54.6c0-31.9,25.5-54.4,59.5-54.4c31.1,0,57.8,18.8,57.8,54.4
				C331.6,270.6,331.2,274.7,331.1,277.8z M257.3,256.8h33.8c-1.7-8.8-8.1-14-16.9-14C265.2,242.8,259,248,257.3,256.8z"/>
			<path class="st2" d="M440.7,288.5v31.7H340.5v-25l43.4-48.4H342v-31.7h96.6v25l-43.4,48.4H440.7z"/>
		</g>
		<g>
			<path class="st2" d="M205.1,277.3h-73c3.1,8.1,10.4,12.3,21.1,12.3c9.6,0,15-2.5,21.9-7.7l22.7,22.9
				c-10.2,11.1-25,16.9-45.9,16.9c-38.6,0-63.6-23.2-63.6-54.6c0-31.9,25.5-54.4,59.5-54.4c31.1,0,57.8,18.8,57.8,54.4
				C205.7,270.1,205.3,274.2,205.1,277.3z M131.4,256.3h33.8c-1.7-8.8-8.1-14-16.9-14C139.2,242.3,133.1,247.5,131.4,256.3z"/>
			<path class="st2" d="M330.6,277.3h-73c3.1,8.1,10.4,12.3,21.1,12.3c9.6,0,15-2.5,21.9-7.7l22.7,22.9
				c-10.2,11.1-25,16.9-45.9,16.9c-38.6,0-63.6-23.2-63.6-54.6c0-31.9,25.5-54.4,59.5-54.4c31.1,0,57.8,18.8,57.8,54.4
				C331.1,270.1,330.7,274.2,330.6,277.3z M256.8,256.3h33.8c-1.7-8.8-8.1-14-16.9-14C264.7,242.3,258.5,247.5,256.8,256.3z"/>
			<path class="st2" d="M440.2,288v31.7H340v-25l43.4-48.4h-41.9v-31.7h96.6v25L394.7,288H440.2z"/>
		</g>
		<g>
			<path class="st2" d="M204.6,276.8h-73c3.1,8.1,10.4,12.3,21.1,12.3c9.6,0,15-2.5,21.9-7.7l22.7,22.9
				c-10.2,11.1-25,16.9-45.9,16.9c-38.6,0-63.6-23.2-63.6-54.6c0-31.9,25.5-54.4,59.5-54.4c31.1,0,57.8,18.8,57.8,54.4
				C205.2,269.6,204.8,273.7,204.6,276.8z M130.9,255.8h33.8c-1.7-8.8-8.1-14-16.9-14C138.7,241.8,132.6,247,130.9,255.8z"/>
			<path class="st2" d="M330.1,276.8h-73c3.1,8.1,10.4,12.3,21.1,12.3c9.6,0,15-2.5,21.9-7.7l22.7,22.9
				c-10.2,11.1-25,16.9-45.9,16.9c-38.6,0-63.6-23.2-63.6-54.6c0-31.9,25.5-54.4,59.5-54.4c31.1,0,57.8,18.8,57.8,54.4
				C330.6,269.6,330.2,273.7,330.1,276.8z M256.3,255.8h33.8c-1.7-8.8-8.1-14-16.9-14C264.2,241.8,258,247,256.3,255.8z"/>
			<path class="st2" d="M439.7,287.5v31.7H339.5v-25l43.4-48.4H341v-31.7h96.6v25l-43.4,48.4H439.7z"/>
		</g>
		<g>
			<path class="st2" d="M204.1,276.3h-73c3.1,8.1,10.4,12.3,21.1,12.3c9.6,0,15-2.5,21.9-7.7l22.7,22.9
				c-10.2,11.1-25,16.9-45.9,16.9c-38.6,0-63.6-23.2-63.6-54.6c0-31.9,25.5-54.4,59.5-54.4c31.1,0,57.8,18.8,57.8,54.4
				C204.7,269.1,204.3,273.2,204.1,276.3z M130.4,255.3h33.8c-1.7-8.8-8.1-14-16.9-14C138.2,241.3,132.1,246.5,130.4,255.3z"/>
			<path class="st2" d="M329.6,276.3h-73c3.1,8.1,10.4,12.3,21.1,12.3c9.6,0,15-2.5,21.9-7.7l22.7,22.9
				c-10.2,11.1-25,16.9-45.9,16.9c-38.6,0-63.6-23.2-63.6-54.6c0-31.9,25.5-54.4,59.5-54.4c31.1,0,57.8,18.8,57.8,54.4
				C330.1,269.1,329.7,273.2,329.6,276.3z M255.8,255.3h33.8c-1.7-8.8-8.1-14-16.9-14C263.7,241.3,257.5,246.5,255.8,255.3z"/>
			<path class="st2" d="M439.2,287v31.7H339v-25l43.4-48.4h-41.9v-31.7h96.6v25L393.7,287H439.2z"/>
		</g>
		<g>
			<path class="st2" d="M203.6,275.8h-73c3.1,8.1,10.4,12.3,21.1,12.3c9.6,0,15-2.5,21.9-7.7l22.7,22.9
				c-10.2,11.1-25,16.9-45.9,16.9c-38.6,0-63.6-23.2-63.6-54.6c0-31.9,25.5-54.4,59.5-54.4c31.1,0,57.8,18.8,57.8,54.4
				C204.2,268.6,203.8,272.7,203.6,275.8z M129.9,254.8h33.8c-1.7-8.8-8.1-14-16.9-14C137.7,240.8,131.6,246,129.9,254.8z"/>
			<path class="st2" d="M329.1,275.8h-73c3.1,8.1,10.4,12.3,21.1,12.3c9.6,0,15-2.5,21.9-7.7l22.7,22.9
				c-10.2,11.1-25,16.9-45.9,16.9c-38.6,0-63.6-23.2-63.6-54.6c0-31.9,25.5-54.4,59.5-54.4c31.1,0,57.8,18.8,57.8,54.4
				C329.6,268.6,329.2,272.7,329.1,275.8z M255.3,254.8h33.8c-1.7-8.8-8.1-14-16.9-14C263.2,240.8,257,246,255.3,254.8z"/>
			<path class="st2" d="M438.7,286.5v31.7H338.5v-25l43.4-48.4H340v-31.7h96.6v25l-43.4,48.4H438.7z"/>
		</g>
		<g>
			<path class="st2" d="M203.1,275.3h-73c3.1,8.1,10.4,12.3,21.1,12.3c9.6,0,15-2.5,21.9-7.7l22.7,22.9
				c-10.2,11.1-25,16.9-45.9,16.9c-38.6,0-63.6-23.2-63.6-54.6c0-31.9,25.5-54.4,59.5-54.4c31.1,0,57.8,18.8,57.8,54.4
				C203.7,268.1,203.3,272.2,203.1,275.3z M129.4,254.3h33.8c-1.7-8.8-8.1-14-16.9-14C137.2,240.3,131.1,245.5,129.4,254.3z"/>
			<path class="st2" d="M328.6,275.3h-73c3.1,8.1,10.4,12.3,21.1,12.3c9.6,0,15-2.5,21.9-7.7l22.7,22.9
				c-10.2,11.1-25,16.9-45.9,16.9c-38.6,0-63.6-23.2-63.6-54.6c0-31.9,25.5-54.4,59.5-54.4c31.1,0,57.8,18.8,57.8,54.4
				C329.1,268.1,328.7,272.2,328.6,275.3z M254.8,254.3h33.8c-1.7-8.8-8.1-14-16.9-14C262.7,240.3,256.5,245.5,254.8,254.3z"/>
			<path class="st2" d="M438.2,286v31.7H338v-25l43.4-48.4h-41.9v-31.7h96.6v25L392.7,286H438.2z"/>
		</g>
		<g>
			<path class="st2" d="M202.6,274.8h-73c3.1,8.1,10.4,12.3,21.1,12.3c9.6,0,15-2.5,21.9-7.7l22.7,22.9
				c-10.2,11.1-25,16.9-45.9,16.9c-38.6,0-63.6-23.2-63.6-54.6c0-31.9,25.5-54.4,59.5-54.4c31.1,0,57.8,18.8,57.8,54.4
				C203.2,267.6,202.8,271.7,202.6,274.8z M128.9,253.8h33.8c-1.7-8.8-8.1-14-16.9-14C136.7,239.8,130.6,245,128.9,253.8z"/>
			<path class="st2" d="M328.1,274.8h-73c3.1,8.1,10.4,12.3,21.1,12.3c9.6,0,15-2.5,21.9-7.7l22.7,22.9
				c-10.2,11.1-25,16.9-45.9,16.9c-38.6,0-63.6-23.2-63.6-54.6c0-31.9,25.5-54.4,59.5-54.4c31.1,0,57.8,18.8,57.8,54.4
				C328.6,267.6,328.2,271.7,328.1,274.8z M254.3,253.8h33.8c-1.7-8.8-8.1-14-16.9-14C262.2,239.8,256,245,254.3,253.8z"/>
			<path class="st2" d="M437.7,285.5v31.7H337.5v-25l43.4-48.4H339v-31.7h96.6v25l-43.4,48.4H437.7z"/>
		</g>
		<g>
			<path class="st2" d="M202.1,274.3h-73c3.1,8.1,10.4,12.3,21.1,12.3c9.6,0,15-2.5,21.9-7.7l22.7,22.9
				c-10.2,11.1-25,16.9-45.9,16.9c-38.6,0-63.6-23.2-63.6-54.6c0-31.9,25.5-54.4,59.5-54.4c31.1,0,57.8,18.8,57.8,54.4
				C202.7,267.1,202.3,271.2,202.1,274.3z M128.4,253.3h33.8c-1.7-8.8-8.1-14-16.9-14C136.2,239.3,130.1,244.5,128.4,253.3z"/>
			<path class="st2" d="M327.6,274.3h-73c3.1,8.1,10.4,12.3,21.1,12.3c9.6,0,15-2.5,21.9-7.7l22.7,22.9
				c-10.2,11.1-25,16.9-45.9,16.9c-38.6,0-63.6-23.2-63.6-54.6c0-31.9,25.5-54.4,59.5-54.4c31.1,0,57.8,18.8,57.8,54.4
				C328.1,267.1,327.7,271.2,327.6,274.3z M253.8,253.3h33.8c-1.7-8.8-8.1-14-16.9-14C261.7,239.3,255.5,244.5,253.8,253.3z"/>
			<path class="st2" d="M437.2,285v31.7H337v-25l43.4-48.4h-41.9v-31.7h96.6v25L391.7,285H437.2z"/>
		</g>
		<g>
			<path class="st2" d="M201.6,273.8h-73c3.1,8.1,10.4,12.3,21.1,12.3c9.6,0,15-2.5,21.9-7.7l22.7,22.9
				c-10.2,11.1-25,16.9-45.9,16.9c-38.6,0-63.6-23.2-63.6-54.6c0-31.9,25.5-54.4,59.5-54.4c31.1,0,57.8,18.8,57.8,54.4
				C202.2,266.6,201.8,270.7,201.6,273.8z M127.9,252.8h33.8c-1.7-8.8-8.1-14-16.9-14C135.7,238.8,129.6,244,127.9,252.8z"/>
			<path class="st2" d="M327.1,273.8h-73c3.1,8.1,10.4,12.3,21.1,12.3c9.6,0,15-2.5,21.9-7.7l22.7,22.9
				c-10.2,11.1-25,16.9-45.9,16.9c-38.6,0-63.6-23.2-63.6-54.6c0-31.9,25.5-54.4,59.5-54.4c31.1,0,57.8,18.8,57.8,54.4
				C327.6,266.6,327.2,270.7,327.1,273.8z M253.3,252.8h33.8c-1.7-8.8-8.1-14-16.9-14C261.2,238.8,255,244,253.3,252.8z"/>
			<path class="st2" d="M436.7,284.5v31.7H336.5v-25l43.4-48.4H338v-31.7h96.6v25l-43.4,48.4H436.7z"/>
		</g>
		<g>
			<path class="st2" d="M201.1,273.3h-73c3.1,8.1,10.4,12.3,21.1,12.3c9.6,0,15-2.5,21.9-7.7l22.7,22.9
				c-10.2,11.1-25,16.9-45.9,16.9c-38.6,0-63.6-23.2-63.6-54.6c0-31.9,25.5-54.4,59.5-54.4c31.1,0,57.8,18.8,57.8,54.4
				C201.7,266.1,201.3,270.2,201.1,273.3z M127.4,252.3h33.8c-1.7-8.8-8.1-14-16.9-14C135.2,238.3,129.1,243.5,127.4,252.3z"/>
			<path class="st2" d="M326.6,273.3h-73c3.1,8.1,10.4,12.3,21.1,12.3c9.6,0,15-2.5,21.9-7.7l22.7,22.9
				c-10.2,11.1-25,16.9-45.9,16.9c-38.6,0-63.6-23.2-63.6-54.6c0-31.9,25.5-54.4,59.5-54.4c31.1,0,57.8,18.8,57.8,54.4
				C327.1,266.1,326.7,270.2,326.6,273.3z M252.8,252.3h33.8c-1.7-8.8-8.1-14-16.9-14C260.7,238.3,254.5,243.5,252.8,252.3z"/>
			<path class="st2" d="M436.2,284v31.7H336v-25l43.4-48.4h-41.9v-31.7h96.6v25L390.7,284H436.2z"/>
		</g>
		<g>
			<path class="st2" d="M200.6,272.8h-73c3.1,8.1,10.4,12.3,21.1,12.3c9.6,0,15-2.5,21.9-7.7l22.7,22.9
				c-10.2,11.1-25,16.9-45.9,16.9c-38.6,0-63.6-23.2-63.6-54.6c0-31.9,25.5-54.4,59.5-54.4c31.1,0,57.8,18.8,57.8,54.4
				C201.2,265.6,200.8,269.7,200.6,272.8z M126.9,251.8h33.8c-1.7-8.8-8.1-14-16.9-14C134.7,237.8,128.6,243,126.9,251.8z"/>
			<path class="st2" d="M326.1,272.8h-73c3.1,8.1,10.4,12.3,21.1,12.3c9.6,0,15-2.5,21.9-7.7l22.7,22.9
				c-10.2,11.1-25,16.9-45.9,16.9c-38.6,0-63.6-23.2-63.6-54.6c0-31.9,25.5-54.4,59.5-54.4c31.1,0,57.8,18.8,57.8,54.4
				C326.6,265.6,326.2,269.7,326.1,272.8z M252.3,251.8h33.8c-1.7-8.8-8.1-14-16.9-14C260.2,237.8,254,243,252.3,251.8z"/>
			<path class="st2" d="M435.7,283.5v31.7H335.5v-25l43.4-48.4H337v-31.7h96.6v25l-43.4,48.4H435.7z"/>
		</g>
		<g>
			<path class="st2" d="M200.1,272.3h-73c3.1,8.1,10.4,12.3,21.1,12.3c9.6,0,15-2.5,21.9-7.7l22.7,22.9
				c-10.2,11.1-25,16.9-45.9,16.9c-38.6,0-63.6-23.2-63.6-54.6c0-31.9,25.5-54.4,59.5-54.4c31.1,0,57.8,18.8,57.8,54.4
				C200.7,265.1,200.3,269.2,200.1,272.3z M126.4,251.3h33.8c-1.7-8.8-8.1-14-16.9-14C134.2,237.3,128.1,242.5,126.4,251.3z"/>
			<path class="st2" d="M325.6,272.3h-73c3.1,8.1,10.4,12.3,21.1,12.3c9.6,0,15-2.5,21.9-7.7l22.7,22.9
				c-10.2,11.1-25,16.9-45.9,16.9c-38.6,0-63.6-23.2-63.6-54.6c0-31.9,25.5-54.4,59.5-54.4c31.1,0,57.8,18.8,57.8,54.4
				C326.1,265.1,325.7,269.2,325.6,272.3z M251.8,251.3h33.8c-1.7-8.8-8.1-14-16.9-14C259.7,237.3,253.5,242.5,251.8,251.3z"/>
			<path class="st2" d="M435.2,283v31.7H335v-25l43.4-48.4h-41.9v-31.7h96.6v25L389.7,283H435.2z"/>
		</g>
		<g>
			<path class="st2" d="M199.6,271.8h-73c3.1,8.1,10.4,12.3,21.1,12.3c9.6,0,15-2.5,21.9-7.7l22.7,22.9
				c-10.2,11.1-25,16.9-45.9,16.9c-38.6,0-63.6-23.2-63.6-54.6c0-31.9,25.5-54.4,59.5-54.4c31.1,0,57.8,18.8,57.8,54.4
				C200.2,264.6,199.8,268.7,199.6,271.8z M125.9,250.8h33.8c-1.7-8.8-8.1-14-16.9-14C133.7,236.8,127.6,242,125.9,250.8z"/>
			<path class="st2" d="M325.1,271.8h-73c3.1,8.1,10.4,12.3,21.1,12.3c9.6,0,15-2.5,21.9-7.7l22.7,22.9
				c-10.2,11.1-25,16.9-45.9,16.9c-38.6,0-63.6-23.2-63.6-54.6c0-31.9,25.5-54.4,59.5-54.4c31.1,0,57.8,18.8,57.8,54.4
				C325.6,264.6,325.2,268.7,325.1,271.8z M251.3,250.8h33.8c-1.7-8.8-8.1-14-16.9-14C259.2,236.8,253,242,251.3,250.8z"/>
			<path class="st2" d="M434.7,282.5v31.7H334.5v-25l43.4-48.4H336v-31.7h96.6v25l-43.4,48.4H434.7z"/>
		</g>
		<g>
			<path class="st2" d="M199.1,271.3h-73c3.1,8.1,10.4,12.3,21.1,12.3c9.6,0,15-2.5,21.9-7.7l22.7,22.9
				c-10.2,11.1-25,16.9-45.9,16.9c-38.6,0-63.6-23.2-63.6-54.6c0-31.9,25.5-54.4,59.5-54.4c31.1,0,57.8,18.8,57.8,54.4
				C199.7,264.1,199.3,268.2,199.1,271.3z M125.4,250.3h33.8c-1.7-8.8-8.1-14-16.9-14C133.2,236.3,127.1,241.5,125.4,250.3z"/>
			<path class="st2" d="M324.6,271.3h-73c3.1,8.1,10.4,12.3,21.1,12.3c9.6,0,15-2.5,21.9-7.7l22.7,22.9
				c-10.2,11.1-25,16.9-45.9,16.9c-38.6,0-63.6-23.2-63.6-54.6c0-31.9,25.5-54.4,59.5-54.4c31.1,0,57.8,18.8,57.8,54.4
				C325.1,264.1,324.7,268.2,324.6,271.3z M250.8,250.3h33.8c-1.7-8.8-8.1-14-16.9-14C258.7,236.3,252.5,241.5,250.8,250.3z"/>
			<path class="st2" d="M434.2,282v31.7H334v-25l43.4-48.4h-41.9v-31.7h96.6v25L388.7,282H434.2z"/>
		</g>
		<g>
			<path class="st2" d="M198.6,270.8h-73c3.1,8.1,10.4,12.3,21.1,12.3c9.6,0,15-2.5,21.9-7.7l22.7,22.9
				c-10.2,11.1-25,16.9-45.9,16.9c-38.6,0-63.6-23.2-63.6-54.6c0-31.9,25.5-54.4,59.5-54.4c31.1,0,57.8,18.8,57.8,54.4
				C199.2,263.6,198.8,267.7,198.6,270.8z M124.9,249.8h33.8c-1.7-8.8-8.1-14-16.9-14C132.7,235.8,126.6,241,124.9,249.8z"/>
			<path class="st2" d="M324.1,270.8h-73c3.1,8.1,10.4,12.3,21.1,12.3c9.6,0,15-2.5,21.9-7.7l22.7,22.9
				c-10.2,11.1-25,16.9-45.9,16.9c-38.6,0-63.6-23.2-63.6-54.6c0-31.9,25.5-54.4,59.5-54.4c31.1,0,57.8,18.8,57.8,54.4
				C324.6,263.6,324.2,267.7,324.1,270.8z M250.3,249.8h33.8c-1.7-8.8-8.1-14-16.9-14C258.2,235.8,252,241,250.3,249.8z"/>
			<path class="st2" d="M433.7,281.5v31.7H333.5v-25l43.4-48.4H335v-31.7h96.6v25l-43.4,48.4H433.7z"/>
		</g>
		<g>
			<path class="st2" d="M198.1,270.3h-73c3.1,8.1,10.4,12.3,21.1,12.3c9.6,0,15-2.5,21.9-7.7l22.7,22.9
				c-10.2,11.1-25,16.9-45.9,16.9c-38.6,0-63.6-23.2-63.6-54.6c0-31.9,25.5-54.4,59.5-54.4c31.1,0,57.8,18.8,57.8,54.4
				C198.7,263.1,198.3,267.2,198.1,270.3z M124.4,249.3h33.8c-1.7-8.8-8.1-14-16.9-14C132.2,235.3,126.1,240.5,124.4,249.3z"/>
			<path class="st2" d="M323.6,270.3h-73c3.1,8.1,10.4,12.3,21.1,12.3c9.6,0,15-2.5,21.9-7.7l22.7,22.9
				c-10.2,11.1-25,16.9-45.9,16.9c-38.6,0-63.6-23.2-63.6-54.6c0-31.9,25.5-54.4,59.5-54.4c31.1,0,57.8,18.8,57.8,54.4
				C324.1,263.1,323.7,267.2,323.6,270.3z M249.8,249.3h33.8c-1.7-8.8-8.1-14-16.9-14C257.7,235.3,251.5,240.5,249.8,249.3z"/>
			<path class="st2" d="M433.2,281v31.7H333v-25l43.4-48.4h-41.9v-31.7h96.6v25L387.7,281H433.2z"/>
		</g>
		<g>
			<path class="st2" d="M197.6,269.8h-73c3.1,8.1,10.4,12.3,21.1,12.3c9.6,0,15-2.5,21.9-7.7l22.7,22.9
				c-10.2,11.1-25,16.9-45.9,16.9c-38.6,0-63.6-23.2-63.6-54.6c0-31.9,25.5-54.4,59.5-54.4c31.1,0,57.8,18.8,57.8,54.4
				C198.2,262.6,197.8,266.7,197.6,269.8z M123.9,248.8h33.8c-1.7-8.8-8.1-14-16.9-14C131.7,234.8,125.6,240,123.9,248.8z"/>
			<path class="st2" d="M323.1,269.8h-73c3.1,8.1,10.4,12.3,21.1,12.3c9.6,0,15-2.5,21.9-7.7l22.7,22.9
				c-10.2,11.1-25,16.9-45.9,16.9c-38.6,0-63.6-23.2-63.6-54.6c0-31.9,25.5-54.4,59.5-54.4c31.1,0,57.8,18.8,57.8,54.4
				C323.6,262.6,323.2,266.7,323.1,269.8z M249.3,248.8h33.8c-1.7-8.8-8.1-14-16.9-14C257.2,234.8,251,240,249.3,248.8z"/>
			<path class="st2" d="M432.7,280.5v31.7H332.5v-25l43.4-48.4H334v-31.7h96.6v25l-43.4,48.4H432.7z"/>
		</g>
		<g>
			<path class="st2" d="M197.1,269.3h-73c3.1,8.1,10.4,12.3,21.1,12.3c9.6,0,15-2.5,21.9-7.7l22.7,22.9
				c-10.2,11.1-25,16.9-45.9,16.9c-38.6,0-63.6-23.2-63.6-54.6c0-31.9,25.5-54.4,59.5-54.4c31.1,0,57.8,18.8,57.8,54.4
				C197.7,262.1,197.3,266.2,197.1,269.3z M123.4,248.3h33.8c-1.7-8.8-8.1-14-16.9-14C131.2,234.3,125.1,239.5,123.4,248.3z"/>
			<path class="st2" d="M322.6,269.3h-73c3.1,8.1,10.4,12.3,21.1,12.3c9.6,0,15-2.5,21.9-7.7l22.7,22.9
				c-10.2,11.1-25,16.9-45.9,16.9c-38.6,0-63.6-23.2-63.6-54.6c0-31.9,25.5-54.4,59.5-54.4c31.1,0,57.8,18.8,57.8,54.4
				C323.1,262.1,322.7,266.2,322.6,269.3z M248.8,248.3h33.8c-1.7-8.8-8.1-14-16.9-14C256.7,234.3,250.5,239.5,248.8,248.3z"/>
			<path class="st2" d="M432.2,280v31.7H332v-25l43.4-48.4h-41.9v-31.7h96.6v25L386.7,280H432.2z"/>
		</g>
		<g>
			<path class="st2" d="M196.6,268.8h-73c3.1,8.1,10.4,12.3,21.1,12.3c9.6,0,15-2.5,21.9-7.7l22.7,22.9
				c-10.2,11.1-25,16.9-45.9,16.9c-38.6,0-63.6-23.2-63.6-54.6c0-31.9,25.5-54.4,59.5-54.4c31.1,0,57.8,18.8,57.8,54.4
				C197.2,261.6,196.8,265.7,196.6,268.8z M122.9,247.8h33.8c-1.7-8.8-8.1-14-16.9-14C130.7,233.8,124.6,239,122.9,247.8z"/>
			<path class="st2" d="M322.1,268.8h-73c3.1,8.1,10.4,12.3,21.1,12.3c9.6,0,15-2.5,21.9-7.7l22.7,22.9
				c-10.2,11.1-25,16.9-45.9,16.9c-38.6,0-63.6-23.2-63.6-54.6c0-31.9,25.5-54.4,59.5-54.4c31.1,0,57.8,18.8,57.8,54.4
				C322.6,261.6,322.2,265.7,322.1,268.8z M248.3,247.8h33.8c-1.7-8.8-8.1-14-16.9-14C256.2,233.8,250,239,248.3,247.8z"/>
			<path class="st2" d="M431.7,279.5v31.7H331.5v-25l43.4-48.4H333v-31.7h96.6v25l-43.4,48.4H431.7z"/>
		</g>
		<g>
			<path class="st2" d="M196.1,268.3h-73c3.1,8.1,10.4,12.3,21.1,12.3c9.6,0,15-2.5,21.9-7.7l22.7,22.9
				c-10.2,11.1-25,16.9-45.9,16.9c-38.6,0-63.6-23.2-63.6-54.6c0-31.9,25.5-54.4,59.5-54.4c31.1,0,57.8,18.8,57.8,54.4
				C196.7,261.1,196.3,265.2,196.1,268.3z M122.4,247.3h33.8c-1.7-8.8-8.1-14-16.9-14C130.2,233.3,124.1,238.5,122.4,247.3z"/>
			<path class="st2" d="M321.6,268.3h-73c3.1,8.1,10.4,12.3,21.1,12.3c9.6,0,15-2.5,21.9-7.7l22.7,22.9
				c-10.2,11.1-25,16.9-45.9,16.9c-38.6,0-63.6-23.2-63.6-54.6c0-31.9,25.5-54.4,59.5-54.4c31.1,0,57.8,18.8,57.8,54.4
				C322.1,261.1,321.7,265.2,321.6,268.3z M247.8,247.3h33.8c-1.7-8.8-8.1-14-16.9-14C255.7,233.3,249.5,238.5,247.8,247.3z"/>
			<path class="st2" d="M431.2,279v31.7H331v-25l43.4-48.4h-41.9v-31.7h96.6v25L385.7,279H431.2z"/>
		</g>
		<g>
			<path class="st2" d="M195.6,267.8h-73c3.1,8.1,10.4,12.3,21.1,12.3c9.6,0,15-2.5,21.9-7.7l22.7,22.9
				c-10.2,11.1-25,16.9-45.9,16.9c-38.6,0-63.6-23.2-63.6-54.6c0-31.9,25.5-54.4,59.5-54.4c31.1,0,57.8,18.8,57.8,54.4
				C196.2,260.6,195.8,264.7,195.6,267.8z M121.9,246.8h33.8c-1.7-8.8-8.1-14-16.9-14C129.7,232.8,123.6,238,121.9,246.8z"/>
			<path class="st2" d="M321.1,267.8h-73c3.1,8.1,10.4,12.3,21.1,12.3c9.6,0,15-2.5,21.9-7.7l22.7,22.9
				c-10.2,11.1-25,16.9-45.9,16.9c-38.6,0-63.6-23.2-63.6-54.6c0-31.9,25.5-54.4,59.5-54.4c31.1,0,57.8,18.8,57.8,54.4
				C321.6,260.6,321.2,264.7,321.1,267.8z M247.3,246.8h33.8c-1.7-8.8-8.1-14-16.9-14C255.2,232.8,249,238,247.3,246.8z"/>
			<path class="st2" d="M430.7,278.5v31.7H330.5v-25l43.4-48.4H332v-31.7h96.6v25l-43.4,48.4H430.7z"/>
		</g>
		<g>
			<path class="st2" d="M195.1,267.3h-73c3.1,8.1,10.4,12.3,21.1,12.3c9.6,0,15-2.5,21.9-7.7l22.7,22.9
				c-10.2,11.1-25,16.9-45.9,16.9c-38.6,0-63.6-23.2-63.6-54.6c0-31.9,25.5-54.4,59.5-54.4c31.1,0,57.8,18.8,57.8,54.4
				C195.7,260.1,195.3,264.2,195.1,267.3z M121.4,246.3h33.8c-1.7-8.8-8.1-14-16.9-14C129.2,232.3,123.1,237.5,121.4,246.3z"/>
			<path class="st2" d="M320.6,267.3h-73c3.1,8.1,10.4,12.3,21.1,12.3c9.6,0,15-2.5,21.9-7.7l22.7,22.9
				c-10.2,11.1-25,16.9-45.9,16.9c-38.6,0-63.6-23.2-63.6-54.6c0-31.9,25.5-54.4,59.5-54.4c31.1,0,57.8,18.8,57.8,54.4
				C321.1,260.1,320.7,264.2,320.6,267.3z M246.8,246.3h33.8c-1.7-8.8-8.1-14-16.9-14C254.7,232.3,248.5,237.5,246.8,246.3z"/>
			<path class="st2" d="M430.2,278v31.7H330v-25l43.4-48.4h-41.9v-31.7h96.6v25L384.7,278H430.2z"/>
		</g>
		<g>
			<path class="st2" d="M194.6,266.8h-73c3.1,8.1,10.4,12.3,21.1,12.3c9.6,0,15-2.5,21.9-7.7l22.7,22.9
				c-10.2,11.1-25,16.9-45.9,16.9c-38.6,0-63.6-23.2-63.6-54.6c0-31.9,25.5-54.4,59.5-54.4c31.1,0,57.8,18.8,57.8,54.4
				C195.2,259.6,194.8,263.7,194.6,266.8z M120.9,245.8h33.8c-1.7-8.8-8.1-14-16.9-14C128.7,231.8,122.6,237,120.9,245.8z"/>
			<path class="st2" d="M320.1,266.8h-73c3.1,8.1,10.4,12.3,21.1,12.3c9.6,0,15-2.5,21.9-7.7l22.7,22.9
				c-10.2,11.1-25,16.9-45.9,16.9c-38.6,0-63.6-23.2-63.6-54.6c0-31.9,25.5-54.4,59.5-54.4c31.1,0,57.8,18.8,57.8,54.4
				C320.6,259.6,320.2,263.7,320.1,266.8z M246.3,245.8h33.8c-1.7-8.8-8.1-14-16.9-14C254.2,231.8,248,237,246.3,245.8z"/>
			<path class="st2" d="M429.7,277.5v31.7H329.5v-25l43.4-48.4H331v-31.7h96.6v25l-43.4,48.4H429.7z"/>
		</g>
		<g>
			<path class="st2" d="M194.1,266.3h-73c3.1,8.1,10.4,12.3,21.1,12.3c9.6,0,15-2.5,21.9-7.7l22.7,22.9
				c-10.2,11.1-25,16.9-45.9,16.9c-38.6,0-63.6-23.2-63.6-54.6c0-31.9,25.5-54.4,59.5-54.4c31.1,0,57.8,18.8,57.8,54.4
				C194.7,259.1,194.3,263.2,194.1,266.3z M120.4,245.3h33.8c-1.7-8.8-8.1-14-16.9-14C128.2,231.3,122.1,236.5,120.4,245.3z"/>
			<path class="st2" d="M319.6,266.3h-73c3.1,8.1,10.4,12.3,21.1,12.3c9.6,0,15-2.5,21.9-7.7l22.7,22.9
				c-10.2,11.1-25,16.9-45.9,16.9c-38.6,0-63.6-23.2-63.6-54.6c0-31.9,25.5-54.4,59.5-54.4c31.1,0,57.8,18.8,57.8,54.4
				C320.1,259.1,319.7,263.2,319.6,266.3z M245.8,245.3h33.8c-1.7-8.8-8.1-14-16.9-14C253.7,231.3,247.5,236.5,245.8,245.3z"/>
			<path class="st2" d="M429.2,277v31.7H329v-25l43.4-48.4h-41.9v-31.7h96.6v25L383.7,277H429.2z"/>
		</g>
		<g>
			<path class="st2" d="M193.6,265.8h-73c3.1,8.1,10.4,12.3,21.1,12.3c9.6,0,15-2.5,21.9-7.7l22.7,22.9
				c-10.2,11.1-25,16.9-45.9,16.9c-38.6,0-63.6-23.2-63.6-54.6c0-31.9,25.5-54.4,59.5-54.4c31.1,0,57.8,18.8,57.8,54.4
				C194.2,258.6,193.8,262.7,193.6,265.8z M119.9,244.8h33.8c-1.7-8.8-8.1-14-16.9-14C127.7,230.8,121.6,236,119.9,244.8z"/>
			<path class="st2" d="M319.1,265.8h-73c3.1,8.1,10.4,12.3,21.1,12.3c9.6,0,15-2.5,21.9-7.7l22.7,22.9
				c-10.2,11.1-25,16.9-45.9,16.9c-38.6,0-63.6-23.2-63.6-54.6c0-31.9,25.5-54.4,59.5-54.4c31.1,0,57.8,18.8,57.8,54.4
				C319.6,258.6,319.2,262.7,319.1,265.8z M245.3,244.8h33.8c-1.7-8.8-8.1-14-16.9-14C253.2,230.8,247,236,245.3,244.8z"/>
			<path class="st2" d="M428.7,276.5v31.7H328.5v-25l43.4-48.4H330v-31.7h96.6v25l-43.4,48.4H428.7z"/>
		</g>
		<g>
			<path class="st2" d="M193.1,265.3h-73c3.1,8.1,10.4,12.3,21.1,12.3c9.6,0,15-2.5,21.9-7.7l22.7,22.9
				c-10.2,11.1-25,16.9-45.9,16.9c-38.6,0-63.6-23.2-63.6-54.6c0-31.9,25.5-54.4,59.5-54.4c31.1,0,57.8,18.8,57.8,54.4
				C193.7,258.1,193.3,262.2,193.1,265.3z M119.4,244.3h33.8c-1.7-8.8-8.1-14-16.9-14C127.2,230.3,121.1,235.5,119.4,244.3z"/>
			<path class="st2" d="M318.6,265.3h-73c3.1,8.1,10.4,12.3,21.1,12.3c9.6,0,15-2.5,21.9-7.7l22.7,22.9
				c-10.2,11.1-25,16.9-45.9,16.9c-38.6,0-63.6-23.2-63.6-54.6c0-31.9,25.5-54.4,59.5-54.4c31.1,0,57.8,18.8,57.8,54.4
				C319.1,258.1,318.7,262.2,318.6,265.3z M244.8,244.3h33.8c-1.7-8.8-8.1-14-16.9-14C252.7,230.3,246.5,235.5,244.8,244.3z"/>
			<path class="st2" d="M428.2,276v31.7H328v-25l43.4-48.4h-41.9v-31.7h96.6v25L382.7,276H428.2z"/>
		</g>
		<g>
			<path class="st2" d="M192.6,264.8h-73c3.1,8.1,10.4,12.3,21.1,12.3c9.6,0,15-2.5,21.9-7.7l22.7,22.9
				c-10.2,11.1-25,16.9-45.9,16.9c-38.6,0-63.6-23.2-63.6-54.6c0-31.9,25.5-54.4,59.5-54.4c31.1,0,57.8,18.8,57.8,54.4
				C193.2,257.6,192.8,261.7,192.6,264.8z M118.9,243.8h33.8c-1.7-8.8-8.1-14-16.9-14C126.7,229.8,120.6,235,118.9,243.8z"/>
			<path class="st2" d="M318.1,264.8h-73c3.1,8.1,10.4,12.3,21.1,12.3c9.6,0,15-2.5,21.9-7.7l22.7,22.9
				c-10.2,11.1-25,16.9-45.9,16.9c-38.6,0-63.6-23.2-63.6-54.6c0-31.9,25.5-54.4,59.5-54.4c31.1,0,57.8,18.8,57.8,54.4
				C318.6,257.6,318.2,261.7,318.1,264.8z M244.3,243.8h33.8c-1.7-8.8-8.1-14-16.9-14C252.2,229.8,246,235,244.3,243.8z"/>
			<path class="st2" d="M427.7,275.5v31.7H327.5v-25l43.4-48.4H329v-31.7h96.6v25l-43.4,48.4H427.7z"/>
		</g>
		<g>
			<path class="st2" d="M192.1,264.3h-73c3.1,8.1,10.4,12.3,21.1,12.3c9.6,0,15-2.5,21.9-7.7l22.7,22.9
				c-10.2,11.1-25,16.9-45.9,16.9c-38.6,0-63.6-23.2-63.6-54.6c0-31.9,25.5-54.4,59.5-54.4c31.1,0,57.8,18.8,57.8,54.4
				C192.7,257.1,192.3,261.2,192.1,264.3z M118.4,243.3h33.8c-1.7-8.8-8.1-14-16.9-14C126.2,229.3,120.1,234.5,118.4,243.3z"/>
			<path class="st2" d="M317.6,264.3h-73c3.1,8.1,10.4,12.3,21.1,12.3c9.6,0,15-2.5,21.9-7.7l22.7,22.9
				c-10.2,11.1-25,16.9-45.9,16.9c-38.6,0-63.6-23.2-63.6-54.6c0-31.9,25.5-54.4,59.5-54.4c31.1,0,57.8,18.8,57.8,54.4
				C318.1,257.1,317.7,261.2,317.6,264.3z M243.8,243.3h33.8c-1.7-8.8-8.1-14-16.9-14C251.7,229.3,245.5,234.5,243.8,243.3z"/>
			<path class="st2" d="M427.2,275v31.7H327v-25l43.4-48.4h-41.9v-31.7h96.6v25L381.7,275H427.2z"/>
		</g>
		<g>
			<path class="st2" d="M191.6,263.8h-73c3.1,8.1,10.4,12.3,21.1,12.3c9.6,0,15-2.5,21.9-7.7l22.7,22.9
				c-10.2,11.1-25,16.9-45.9,16.9c-38.6,0-63.6-23.2-63.6-54.6c0-31.9,25.5-54.4,59.5-54.4c31.1,0,57.8,18.8,57.8,54.4
				C192.2,256.6,191.8,260.7,191.6,263.8z M117.9,242.8h33.8c-1.7-8.8-8.1-14-16.9-14C125.7,228.8,119.6,234,117.9,242.8z"/>
			<path class="st2" d="M317.1,263.8h-73c3.1,8.1,10.4,12.3,21.1,12.3c9.6,0,15-2.5,21.9-7.7l22.7,22.9
				c-10.2,11.1-25,16.9-45.9,16.9c-38.6,0-63.6-23.2-63.6-54.6c0-31.9,25.5-54.4,59.5-54.4c31.1,0,57.8,18.8,57.8,54.4
				C317.6,256.6,317.2,260.7,317.1,263.8z M243.3,242.8h33.8c-1.7-8.8-8.1-14-16.9-14C251.2,228.8,245,234,243.3,242.8z"/>
			<path class="st2" d="M426.7,274.5v31.7H326.5v-25l43.4-48.4H328v-31.7h96.6v25l-43.4,48.4H426.7z"/>
		</g>
		<g>
			<path class="st2" d="M191.1,263.3h-73c3.1,8.1,10.4,12.3,21.1,12.3c9.6,0,15-2.5,21.9-7.7l22.7,22.9
				c-10.2,11.1-25,16.9-45.9,16.9c-38.6,0-63.6-23.2-63.6-54.6c0-31.9,25.5-54.4,59.5-54.4c31.1,0,57.8,18.8,57.8,54.4
				C191.7,256.1,191.3,260.2,191.1,263.3z M117.4,242.3h33.8c-1.7-8.8-8.1-14-16.9-14C125.2,228.3,119.1,233.5,117.4,242.3z"/>
			<path class="st2" d="M316.6,263.3h-73c3.1,8.1,10.4,12.3,21.1,12.3c9.6,0,15-2.5,21.9-7.7l22.7,22.9
				c-10.2,11.1-25,16.9-45.9,16.9c-38.6,0-63.6-23.2-63.6-54.6c0-31.9,25.5-54.4,59.5-54.4c31.1,0,57.8,18.8,57.8,54.4
				C317.1,256.1,316.7,260.2,316.6,263.3z M242.8,242.3h33.8c-1.7-8.8-8.1-14-16.9-14C250.7,228.3,244.5,233.5,242.8,242.3z"/>
			<path class="st2" d="M426.2,274v31.7H326v-25l43.4-48.4h-41.9v-31.7h96.6v25L380.7,274H426.2z"/>
		</g>
	</g>
	<g>
		<path class="st1" d="M191.1,263.3h-73c3.1,8.1,10.4,12.3,21.1,12.3c9.6,0,15-2.5,21.9-7.7l22.7,22.9c-10.2,11.1-25,16.9-45.9,16.9
			c-38.6,0-63.6-23.2-63.6-54.6c0-31.9,25.5-54.4,59.5-54.4c31.1,0,57.8,18.8,57.8,54.4C191.7,256.1,191.3,260.2,191.1,263.3z
			 M117.4,242.3h33.8c-1.7-8.8-8.1-14-16.9-14C125.2,228.3,119.1,233.5,117.4,242.3z"/>
		<path class="st1" d="M316.6,263.3h-73c3.1,8.1,10.4,12.3,21.1,12.3c9.6,0,15-2.5,21.9-7.7l22.7,22.9c-10.2,11.1-25,16.9-45.9,16.9
			c-38.6,0-63.6-23.2-63.6-54.6c0-31.9,25.5-54.4,59.5-54.4c31.1,0,57.8,18.8,57.8,54.4C317.1,256.1,316.7,260.2,316.6,263.3z
			 M242.8,242.3h33.8c-1.7-8.8-8.1-14-16.9-14C250.7,228.3,244.5,233.5,242.8,242.3z"/>
		<path class="st1" d="M426.2,274v31.7H326v-25l43.4-48.4h-41.9v-31.7h96.6v25L380.7,274H426.2z"/>
	</g>
</g>
<g>
</g>
<g>
</g>
<g>
</g>
<g>
</g>
<g>
</g>
</svg>
