<?xml version="1.0" encoding="utf-8"?>
<!-- Generator: Adobe Illustrator 21.0.0, SVG Export Plug-In . SVG Version: 6.00 Build 0)  -->
<svg version="1.1" id="Layer_1" xmlns="http://www.w3.org/2000/svg" xmlns:xlink="http://www.w3.org/1999/xlink" x="0px" y="0px"
	 viewBox="0 0 500 500" style="enable-background:new 0 0 500 500;" xml:space="preserve">
<style type="text/css">
	.st0{fill:#43BA9E;}
	.st1{fill:#FFFFFF;}
	.st2{fill:#328B77;}
</style>
<circle class="st0" cx="250" cy="250" r="231.5"/>
<g>
	<g>
		<path class="st1" d="M187.5,278.9c-4.2,11.2-10.9,20-20.2,26.3c-9.3,6.3-20.2,9.5-32.7,9.5c-17.6,0-32.1-4.9-43.5-14.7
			c-11.4-9.8-17-23.3-17-40.6c0-16.1,5.9-29.4,17.6-39.7c11.7-10.4,25.8-15.6,42.3-15.6c17.2,0,30.4,4.9,39.5,14.5
			c9.1,9.7,13.7,21.6,13.7,35.6h-68.7c0,5.4,0.4,10.9,1.2,16.5s2.4,11,4.7,16.2c2.3,5.2,5.6,9.4,9.8,12.6c4.2,3.2,9.5,4.8,15.9,4.8
			c9.2,0,16.4-2.6,21.7-7.7c5.3-5.1,9.4-11.6,12.3-19.4L187.5,278.9z M147.9,249.8c-0.2-1.6-0.3-3.6-0.3-5.8
			c-0.1-2.2-0.1-5.1-0.1-8.5c0-9.1-1.1-16-3.3-20.7c-2.2-4.7-6.1-7.1-11.6-7.1c-4.7,0-8,2.3-9.9,6.8c-1.9,4.6-3.1,11.5-3.9,20.9
			l-0.4,14.3H147.9z"/>
		<path class="st1" d="M306.2,278.9c-4.2,11.2-10.9,20-20.2,26.3c-9.3,6.3-20.2,9.5-32.7,9.5c-17.6,0-32.1-4.9-43.5-14.7
			c-11.4-9.8-17-23.3-17-40.6c0-16.1,5.9-29.4,17.6-39.7c11.7-10.4,25.8-15.6,42.3-15.6c17.2,0,30.4,4.9,39.5,14.5
			c9.1,9.7,13.7,21.6,13.7,35.6H237c0,5.4,0.4,10.9,1.2,16.5s2.4,11,4.7,16.2c2.3,5.2,5.6,9.4,9.8,12.6c4.2,3.2,9.5,4.8,15.9,4.8
			c9.2,0,16.4-2.6,21.7-7.7s9.4-11.6,12.3-19.4L306.2,278.9z M266.6,249.8c-0.2-1.6-0.3-3.6-0.3-5.8c-0.1-2.2-0.1-5.1-0.1-8.5
			c0-9.1-1.1-16-3.3-20.7c-2.2-4.7-6.1-7.1-11.6-7.1c-4.7,0-8,2.3-9.9,6.8c-1.9,4.6-3.1,11.5-3.9,20.9l-0.4,14.3H266.6z"/>
		<path class="st1" d="M374.7,308c7.2,0,15.1-5.1,23.7-15.4c8.7-10.3,15.4-20.5,20.4-30.7h2.9v50.6H308.2v-2l67.6-99.4l-12.1-0.4
			c-7.3,0-15.3,4.9-24.1,14.6c-8.7,9.7-15.6,19.6-20.7,29.8H316v-48.6h108.8v2l-67.4,99.4L374.7,308z"/>
	</g>
	<g>
		<g>
			<path class="st2" d="M202.5,293.9c-4.2,11.2-10.9,20-20.2,26.3c-9.3,6.3-20.2,9.5-32.7,9.5c-17.6,0-32.1-4.9-43.5-14.7
				c-11.4-9.8-17-23.3-17-40.6c0-16.1,5.9-29.4,17.6-39.7c11.7-10.4,25.8-15.6,42.3-15.6c17.2,0,30.4,4.9,39.5,14.5
				c9.1,9.7,13.7,21.6,13.7,35.6h-68.7c0,5.4,0.4,10.9,1.2,16.5s2.4,11,4.7,16.2c2.3,5.2,5.6,9.4,9.8,12.6c4.2,3.2,9.5,4.8,15.9,4.8
				c9.2,0,16.4-2.6,21.7-7.7c5.3-5.1,9.4-11.6,12.3-19.4L202.5,293.9z M162.9,264.8c-0.2-1.6-0.3-3.6-0.3-5.8
				c-0.1-2.2-0.1-5.1-0.1-8.5c0-9.1-1.1-16-3.3-20.7c-2.2-4.7-6.1-7.1-11.6-7.1c-4.7,0-8,2.3-9.9,6.8c-1.9,4.6-3.1,11.5-3.9,20.9
				l-0.4,14.3H162.9z"/>
			<path class="st2" d="M321.2,293.9c-4.2,11.2-10.9,20-20.2,26.3c-9.3,6.3-20.2,9.5-32.7,9.5c-17.6,0-32.1-4.9-43.5-14.7
				c-11.4-9.8-17-23.3-17-40.6c0-16.1,5.9-29.4,17.6-39.7c11.7-10.4,25.8-15.6,42.3-15.6c17.2,0,30.4,4.9,39.5,14.5
				c9.1,9.7,13.7,21.6,13.7,35.6H252c0,5.4,0.4,10.9,1.2,16.5s2.4,11,4.7,16.2c2.3,5.2,5.6,9.4,9.8,12.6c4.2,3.2,9.5,4.8,15.9,4.8
				c9.2,0,16.4-2.6,21.7-7.7s9.4-11.6,12.3-19.4L321.2,293.9z M281.6,264.8c-0.2-1.6-0.3-3.6-0.3-5.8c-0.1-2.2-0.1-5.1-0.1-8.5
				c0-9.1-1.1-16-3.3-20.7c-2.2-4.7-6.1-7.1-11.6-7.1c-4.7,0-8,2.3-9.9,6.8c-1.9,4.6-3.1,11.5-3.9,20.9l-0.4,14.3H281.6z"/>
			<path class="st2" d="M389.7,323c7.2,0,15.1-5.1,23.7-15.4c8.7-10.3,15.4-20.5,20.4-30.7h2.9v50.6H323.2v-2l67.6-99.4l-12.1-0.4
				c-7.3,0-15.3,4.9-24.1,14.6c-8.7,9.7-15.6,19.6-20.7,29.8H331v-48.6h108.8v2l-67.4,99.4L389.7,323z"/>
		</g>
		<g>
			<path class="st2" d="M202,293.4c-4.2,11.2-10.9,20-20.2,26.3c-9.3,6.3-20.2,9.5-32.7,9.5c-17.6,0-32.1-4.9-43.5-14.7
				c-11.4-9.8-17-23.3-17-40.6c0-16.1,5.9-29.4,17.6-39.7c11.7-10.4,25.8-15.6,42.3-15.6c17.2,0,30.4,4.9,39.5,14.5
				c9.1,9.7,13.7,21.6,13.7,35.6h-68.7c0,5.4,0.4,10.9,1.2,16.5s2.4,11,4.7,16.2c2.3,5.2,5.6,9.4,9.8,12.6c4.2,3.2,9.5,4.8,15.9,4.8
				c9.2,0,16.4-2.6,21.7-7.7c5.3-5.1,9.4-11.6,12.3-19.4L202,293.4z M162.4,264.3c-0.2-1.6-0.3-3.6-0.3-5.8
				c-0.1-2.2-0.1-5.1-0.1-8.5c0-9.1-1.1-16-3.3-20.7c-2.2-4.7-6.1-7.1-11.6-7.1c-4.7,0-8,2.3-9.9,6.8c-1.9,4.6-3.1,11.5-3.9,20.9
				l-0.4,14.3H162.4z"/>
			<path class="st2" d="M320.7,293.4c-4.2,11.2-10.9,20-20.2,26.3c-9.3,6.3-20.2,9.5-32.7,9.5c-17.6,0-32.1-4.9-43.5-14.7
				c-11.4-9.8-17-23.3-17-40.6c0-16.1,5.9-29.4,17.6-39.7c11.7-10.4,25.8-15.6,42.3-15.6c17.2,0,30.4,4.9,39.5,14.5
				c9.1,9.7,13.7,21.6,13.7,35.6h-68.7c0,5.4,0.4,10.9,1.2,16.5s2.4,11,4.7,16.2c2.3,5.2,5.6,9.4,9.8,12.6c4.2,3.2,9.5,4.8,15.9,4.8
				c9.2,0,16.4-2.6,21.7-7.7s9.4-11.6,12.3-19.4L320.7,293.4z M281.1,264.3c-0.2-1.6-0.3-3.6-0.3-5.8c-0.1-2.2-0.1-5.1-0.1-8.5
				c0-9.1-1.1-16-3.3-20.7c-2.2-4.7-6.1-7.1-11.6-7.1c-4.7,0-8,2.3-9.9,6.8c-1.9,4.6-3.1,11.5-3.9,20.9l-0.4,14.3H281.1z"/>
			<path class="st2" d="M389.2,322.5c7.2,0,15.1-5.1,23.7-15.4c8.7-10.3,15.4-20.5,20.4-30.7h2.9V327H322.7v-2l67.6-99.4l-12.1-0.4
				c-7.3,0-15.3,4.9-24.1,14.6c-8.7,9.7-15.6,19.6-20.7,29.8h-2.9v-48.6h108.8v2l-67.4,99.4L389.2,322.5z"/>
		</g>
		<g>
			<path class="st2" d="M201.5,292.9c-4.2,11.2-10.9,20-20.2,26.3c-9.3,6.3-20.2,9.5-32.7,9.5c-17.6,0-32.1-4.9-43.5-14.7
				c-11.4-9.8-17-23.3-17-40.6c0-16.1,5.9-29.4,17.6-39.7c11.7-10.4,25.8-15.6,42.3-15.6c17.2,0,30.4,4.9,39.5,14.5
				c9.1,9.7,13.7,21.6,13.7,35.6h-68.7c0,5.4,0.4,10.9,1.2,16.5s2.4,11,4.7,16.2c2.3,5.2,5.6,9.4,9.8,12.6c4.2,3.2,9.5,4.8,15.9,4.8
				c9.2,0,16.4-2.6,21.7-7.7c5.3-5.1,9.4-11.6,12.3-19.4L201.5,292.9z M161.9,263.8c-0.2-1.6-0.3-3.6-0.3-5.8
				c-0.1-2.2-0.1-5.1-0.1-8.5c0-9.1-1.1-16-3.3-20.7c-2.2-4.7-6.1-7.1-11.6-7.1c-4.7,0-8,2.3-9.9,6.8c-1.9,4.6-3.1,11.5-3.9,20.9
				l-0.4,14.3H161.9z"/>
			<path class="st2" d="M320.2,292.9c-4.2,11.2-10.9,20-20.2,26.3c-9.3,6.3-20.2,9.5-32.7,9.5c-17.6,0-32.1-4.9-43.5-14.7
				c-11.4-9.8-17-23.3-17-40.6c0-16.1,5.9-29.4,17.6-39.7c11.7-10.4,25.8-15.6,42.3-15.6c17.2,0,30.4,4.9,39.5,14.5
				c9.1,9.7,13.7,21.6,13.7,35.6H251c0,5.4,0.4,10.9,1.2,16.5s2.4,11,4.7,16.2c2.3,5.2,5.6,9.4,9.8,12.6c4.2,3.2,9.5,4.8,15.9,4.8
				c9.2,0,16.4-2.6,21.7-7.7s9.4-11.6,12.3-19.4L320.2,292.9z M280.6,263.8c-0.2-1.6-0.3-3.6-0.3-5.8c-0.1-2.2-0.1-5.1-0.1-8.5
				c0-9.1-1.1-16-3.3-20.7c-2.2-4.7-6.1-7.1-11.6-7.1c-4.7,0-8,2.3-9.9,6.8c-1.9,4.6-3.1,11.5-3.9,20.9l-0.4,14.3H280.6z"/>
			<path class="st2" d="M388.7,322c7.2,0,15.1-5.1,23.7-15.4c8.7-10.3,15.4-20.5,20.4-30.7h2.9v50.6H322.2v-2l67.6-99.4l-12.1-0.4
				c-7.3,0-15.3,4.9-24.1,14.6c-8.7,9.7-15.6,19.6-20.7,29.8H330v-48.6h108.8v2l-67.4,99.4L388.7,322z"/>
		</g>
		<g>
			<path class="st2" d="M201,292.4c-4.2,11.2-10.9,20-20.2,26.3c-9.3,6.3-20.2,9.5-32.7,9.5c-17.6,0-32.1-4.9-43.5-14.7
				c-11.4-9.8-17-23.3-17-40.6c0-16.1,5.9-29.4,17.6-39.7c11.7-10.4,25.8-15.6,42.3-15.6c17.2,0,30.4,4.9,39.5,14.5
				c9.1,9.7,13.7,21.6,13.7,35.6h-68.7c0,5.4,0.4,10.9,1.2,16.5s2.4,11,4.7,16.2c2.3,5.2,5.6,9.4,9.8,12.6c4.2,3.2,9.5,4.8,15.9,4.8
				c9.2,0,16.4-2.6,21.7-7.7c5.3-5.1,9.4-11.6,12.3-19.4L201,292.4z M161.4,263.3c-0.2-1.6-0.3-3.6-0.3-5.8
				c-0.1-2.2-0.1-5.1-0.1-8.5c0-9.1-1.1-16-3.3-20.7c-2.2-4.7-6.1-7.1-11.6-7.1c-4.7,0-8,2.3-9.9,6.8c-1.9,4.6-3.1,11.5-3.9,20.9
				l-0.4,14.3H161.4z"/>
			<path class="st2" d="M319.7,292.4c-4.2,11.2-10.9,20-20.2,26.3c-9.3,6.3-20.2,9.5-32.7,9.5c-17.6,0-32.1-4.9-43.5-14.7
				c-11.4-9.8-17-23.3-17-40.6c0-16.1,5.9-29.4,17.6-39.7c11.7-10.4,25.8-15.6,42.3-15.6c17.2,0,30.4,4.9,39.5,14.5
				c9.1,9.7,13.7,21.6,13.7,35.6h-68.7c0,5.4,0.4,10.9,1.2,16.5s2.4,11,4.7,16.2c2.3,5.2,5.6,9.4,9.8,12.6c4.2,3.2,9.5,4.8,15.9,4.8
				c9.2,0,16.4-2.6,21.7-7.7s9.4-11.6,12.3-19.4L319.7,292.4z M280.1,263.3c-0.2-1.6-0.3-3.6-0.3-5.8c-0.1-2.2-0.1-5.1-0.1-8.5
				c0-9.1-1.1-16-3.3-20.7c-2.2-4.7-6.1-7.1-11.6-7.1c-4.7,0-8,2.3-9.9,6.8c-1.9,4.6-3.1,11.5-3.9,20.9l-0.4,14.3H280.1z"/>
			<path class="st2" d="M388.2,321.5c7.2,0,15.1-5.1,23.7-15.4c8.7-10.3,15.4-20.5,20.4-30.7h2.9V326H321.7v-2l67.6-99.4l-12.1-0.4
				c-7.3,0-15.3,4.9-24.1,14.6c-8.7,9.7-15.6,19.6-20.7,29.8h-2.9v-48.6h108.8v2l-67.4,99.4L388.2,321.5z"/>
		</g>
		<g>
			<path class="st2" d="M200.5,291.9c-4.2,11.2-10.9,20-20.2,26.3c-9.3,6.3-20.2,9.5-32.7,9.5c-17.6,0-32.1-4.9-43.5-14.7
				c-11.4-9.8-17-23.3-17-40.6c0-16.1,5.9-29.4,17.6-39.7c11.7-10.4,25.8-15.6,42.3-15.6c17.2,0,30.4,4.9,39.5,14.5
				c9.1,9.7,13.7,21.6,13.7,35.6h-68.7c0,5.4,0.4,10.9,1.2,16.5s2.4,11,4.7,16.2c2.3,5.2,5.6,9.4,9.8,12.6c4.2,3.2,9.5,4.8,15.9,4.8
				c9.2,0,16.4-2.6,21.7-7.7c5.3-5.1,9.4-11.6,12.3-19.4L200.5,291.9z M160.9,262.8c-0.2-1.6-0.3-3.6-0.3-5.8
				c-0.1-2.2-0.1-5.1-0.1-8.5c0-9.1-1.1-16-3.3-20.7c-2.2-4.7-6.1-7.1-11.6-7.1c-4.7,0-8,2.3-9.9,6.8c-1.9,4.6-3.1,11.5-3.9,20.9
				l-0.4,14.3H160.9z"/>
			<path class="st2" d="M319.2,291.9c-4.2,11.2-10.9,20-20.2,26.3c-9.3,6.3-20.2,9.5-32.7,9.5c-17.6,0-32.1-4.9-43.5-14.7
				c-11.4-9.8-17-23.3-17-40.6c0-16.1,5.9-29.4,17.6-39.7c11.7-10.4,25.8-15.6,42.3-15.6c17.2,0,30.4,4.9,39.5,14.5
				c9.1,9.7,13.7,21.6,13.7,35.6H250c0,5.4,0.4,10.9,1.2,16.5s2.4,11,4.7,16.2c2.3,5.2,5.6,9.4,9.8,12.6c4.2,3.2,9.5,4.8,15.9,4.8
				c9.2,0,16.4-2.6,21.7-7.7s9.4-11.6,12.3-19.4L319.2,291.9z M279.6,262.8c-0.2-1.6-0.3-3.6-0.3-5.8c-0.1-2.2-0.1-5.1-0.1-8.5
				c0-9.1-1.1-16-3.3-20.7c-2.2-4.7-6.1-7.1-11.6-7.1c-4.7,0-8,2.3-9.9,6.8c-1.9,4.6-3.1,11.5-3.9,20.9l-0.4,14.3H279.6z"/>
			<path class="st2" d="M387.7,321c7.2,0,15.1-5.1,23.7-15.4c8.7-10.3,15.4-20.5,20.4-30.7h2.9v50.6H321.2v-2l67.6-99.4l-12.1-0.4
				c-7.3,0-15.3,4.9-24.1,14.6c-8.7,9.7-15.6,19.6-20.7,29.8H329v-48.6h108.8v2l-67.4,99.4L387.7,321z"/>
		</g>
		<g>
			<path class="st2" d="M200,291.4c-4.2,11.2-10.9,20-20.2,26.3c-9.3,6.3-20.2,9.5-32.7,9.5c-17.6,0-32.1-4.9-43.5-14.7
				c-11.4-9.8-17-23.3-17-40.6c0-16.1,5.9-29.4,17.6-39.7c11.7-10.4,25.8-15.6,42.3-15.6c17.2,0,30.4,4.9,39.5,14.5
				c9.1,9.7,13.7,21.6,13.7,35.6h-68.7c0,5.4,0.4,10.9,1.2,16.5s2.4,11,4.7,16.2c2.3,5.2,5.6,9.4,9.8,12.6c4.2,3.2,9.5,4.8,15.9,4.8
				c9.2,0,16.4-2.6,21.7-7.7c5.3-5.1,9.4-11.6,12.3-19.4L200,291.4z M160.4,262.3c-0.2-1.6-0.3-3.6-0.3-5.8
				c-0.1-2.2-0.1-5.1-0.1-8.5c0-9.1-1.1-16-3.3-20.7c-2.2-4.7-6.1-7.1-11.6-7.1c-4.7,0-8,2.3-9.9,6.8c-1.9,4.6-3.1,11.5-3.9,20.9
				l-0.4,14.3H160.4z"/>
			<path class="st2" d="M318.7,291.4c-4.2,11.2-10.9,20-20.2,26.3c-9.3,6.3-20.2,9.5-32.7,9.5c-17.6,0-32.1-4.9-43.5-14.7
				c-11.4-9.8-17-23.3-17-40.6c0-16.1,5.9-29.4,17.6-39.7c11.7-10.4,25.8-15.6,42.3-15.6c17.2,0,30.4,4.9,39.5,14.5
				c9.1,9.7,13.7,21.6,13.7,35.6h-68.7c0,5.4,0.4,10.9,1.2,16.5s2.4,11,4.7,16.2c2.3,5.2,5.6,9.4,9.8,12.6c4.2,3.2,9.5,4.8,15.9,4.8
				c9.2,0,16.4-2.6,21.7-7.7s9.4-11.6,12.3-19.4L318.7,291.4z M279.1,262.3c-0.2-1.6-0.3-3.6-0.3-5.8c-0.1-2.2-0.1-5.1-0.1-8.5
				c0-9.1-1.1-16-3.3-20.7c-2.2-4.7-6.1-7.1-11.6-7.1c-4.7,0-8,2.3-9.9,6.8c-1.9,4.6-3.1,11.5-3.9,20.9l-0.4,14.3H279.1z"/>
			<path class="st2" d="M387.2,320.5c7.2,0,15.1-5.1,23.7-15.4c8.7-10.3,15.4-20.5,20.4-30.7h2.9V325H320.7v-2l67.6-99.4l-12.1-0.4
				c-7.3,0-15.3,4.9-24.1,14.6c-8.7,9.7-15.6,19.6-20.7,29.8h-2.9v-48.6h108.8v2l-67.4,99.4L387.2,320.5z"/>
		</g>
		<g>
			<path class="st2" d="M199.5,290.9c-4.2,11.2-10.9,20-20.2,26.3c-9.3,6.3-20.2,9.5-32.7,9.5c-17.6,0-32.1-4.9-43.5-14.7
				c-11.4-9.8-17-23.3-17-40.6c0-16.1,5.9-29.4,17.6-39.7c11.7-10.4,25.8-15.6,42.3-15.6c17.2,0,30.4,4.9,39.5,14.5
				c9.1,9.7,13.7,21.6,13.7,35.6h-68.7c0,5.4,0.4,10.9,1.2,16.5s2.4,11,4.7,16.2c2.3,5.2,5.6,9.4,9.8,12.6c4.2,3.2,9.5,4.8,15.9,4.8
				c9.2,0,16.4-2.6,21.7-7.7c5.3-5.1,9.4-11.6,12.3-19.4L199.5,290.9z M159.9,261.8c-0.2-1.6-0.3-3.6-0.3-5.8
				c-0.1-2.2-0.1-5.1-0.1-8.5c0-9.1-1.1-16-3.3-20.7c-2.2-4.7-6.1-7.1-11.6-7.1c-4.7,0-8,2.3-9.9,6.8c-1.9,4.6-3.1,11.5-3.9,20.9
				l-0.4,14.3H159.9z"/>
			<path class="st2" d="M318.2,290.9c-4.2,11.2-10.9,20-20.2,26.3c-9.3,6.3-20.2,9.5-32.7,9.5c-17.6,0-32.1-4.9-43.5-14.7
				c-11.4-9.8-17-23.3-17-40.6c0-16.1,5.9-29.4,17.6-39.7c11.7-10.4,25.8-15.6,42.3-15.6c17.2,0,30.4,4.9,39.5,14.5
				c9.1,9.7,13.7,21.6,13.7,35.6H249c0,5.4,0.4,10.9,1.2,16.5s2.4,11,4.7,16.2c2.3,5.2,5.6,9.4,9.8,12.6c4.2,3.2,9.5,4.8,15.9,4.8
				c9.2,0,16.4-2.6,21.7-7.7s9.4-11.6,12.3-19.4L318.2,290.9z M278.6,261.8c-0.2-1.6-0.3-3.6-0.3-5.8c-0.1-2.2-0.1-5.1-0.1-8.5
				c0-9.1-1.1-16-3.3-20.7c-2.2-4.7-6.1-7.1-11.6-7.1c-4.7,0-8,2.3-9.9,6.8c-1.9,4.6-3.1,11.5-3.9,20.9l-0.4,14.3H278.6z"/>
			<path class="st2" d="M386.7,320c7.2,0,15.1-5.1,23.7-15.4c8.7-10.3,15.4-20.5,20.4-30.7h2.9v50.6H320.2v-2l67.6-99.4l-12.1-0.4
				c-7.3,0-15.3,4.9-24.1,14.6c-8.7,9.7-15.6,19.6-20.7,29.8H328v-48.6h108.8v2l-67.4,99.4L386.7,320z"/>
		</g>
		<g>
			<path class="st2" d="M199,290.4c-4.2,11.2-10.9,20-20.2,26.3c-9.3,6.3-20.2,9.5-32.7,9.5c-17.6,0-32.1-4.9-43.5-14.7
				c-11.4-9.8-17-23.3-17-40.6c0-16.1,5.9-29.4,17.6-39.7c11.7-10.4,25.8-15.6,42.3-15.6c17.2,0,30.4,4.9,39.5,14.5
				c9.1,9.7,13.7,21.6,13.7,35.6h-68.7c0,5.4,0.4,10.9,1.2,16.5s2.4,11,4.7,16.2c2.3,5.2,5.6,9.4,9.8,12.6c4.2,3.2,9.5,4.8,15.9,4.8
				c9.2,0,16.4-2.6,21.7-7.7c5.3-5.1,9.4-11.6,12.3-19.4L199,290.4z M159.4,261.3c-0.2-1.6-0.3-3.6-0.3-5.8
				c-0.1-2.2-0.1-5.1-0.1-8.5c0-9.1-1.1-16-3.3-20.7c-2.2-4.7-6.1-7.1-11.6-7.1c-4.7,0-8,2.3-9.9,6.8c-1.9,4.6-3.1,11.5-3.9,20.9
				l-0.4,14.3H159.4z"/>
			<path class="st2" d="M317.7,290.4c-4.2,11.2-10.9,20-20.2,26.3c-9.3,6.3-20.2,9.5-32.7,9.5c-17.6,0-32.1-4.9-43.5-14.7
				c-11.4-9.8-17-23.3-17-40.6c0-16.1,5.9-29.4,17.6-39.7c11.7-10.4,25.8-15.6,42.3-15.6c17.2,0,30.4,4.9,39.5,14.5
				c9.1,9.7,13.7,21.6,13.7,35.6h-68.7c0,5.4,0.4,10.9,1.2,16.5s2.4,11,4.7,16.2c2.3,5.2,5.6,9.4,9.8,12.6c4.2,3.2,9.5,4.8,15.9,4.8
				c9.2,0,16.4-2.6,21.7-7.7s9.4-11.6,12.3-19.4L317.7,290.4z M278.1,261.3c-0.2-1.6-0.3-3.6-0.3-5.8c-0.1-2.2-0.1-5.1-0.1-8.5
				c0-9.1-1.1-16-3.3-20.7c-2.2-4.7-6.1-7.1-11.6-7.1c-4.7,0-8,2.3-9.9,6.8c-1.9,4.6-3.1,11.5-3.9,20.9l-0.4,14.3H278.1z"/>
			<path class="st2" d="M386.2,319.5c7.2,0,15.1-5.1,23.7-15.4c8.7-10.3,15.4-20.5,20.4-30.7h2.9V324H319.7v-2l67.6-99.4l-12.1-0.4
				c-7.3,0-15.3,4.9-24.1,14.6c-8.7,9.7-15.6,19.6-20.7,29.8h-2.9v-48.6h108.8v2l-67.4,99.4L386.2,319.5z"/>
		</g>
		<g>
			<path class="st2" d="M198.5,289.9c-4.2,11.2-10.9,20-20.2,26.3c-9.3,6.3-20.2,9.5-32.7,9.5c-17.6,0-32.1-4.9-43.5-14.7
				c-11.4-9.8-17-23.3-17-40.6c0-16.1,5.9-29.4,17.6-39.7c11.7-10.4,25.8-15.6,42.3-15.6c17.2,0,30.4,4.9,39.5,14.5
				c9.1,9.7,13.7,21.6,13.7,35.6h-68.7c0,5.4,0.4,10.9,1.2,16.5s2.4,11,4.7,16.2c2.3,5.2,5.6,9.4,9.8,12.6c4.2,3.2,9.5,4.8,15.9,4.8
				c9.2,0,16.4-2.6,21.7-7.7c5.3-5.1,9.4-11.6,12.3-19.4L198.5,289.9z M158.9,260.8c-0.2-1.6-0.3-3.6-0.3-5.8
				c-0.1-2.2-0.1-5.1-0.1-8.5c0-9.1-1.1-16-3.3-20.7c-2.2-4.7-6.1-7.1-11.6-7.1c-4.7,0-8,2.3-9.9,6.8c-1.9,4.6-3.1,11.5-3.9,20.9
				l-0.4,14.3H158.9z"/>
			<path class="st2" d="M317.2,289.9c-4.2,11.2-10.9,20-20.2,26.3c-9.3,6.3-20.2,9.5-32.7,9.5c-17.6,0-32.1-4.9-43.5-14.7
				c-11.4-9.8-17-23.3-17-40.6c0-16.1,5.9-29.4,17.6-39.7c11.7-10.4,25.8-15.6,42.3-15.6c17.2,0,30.4,4.9,39.5,14.5
				c9.1,9.7,13.7,21.6,13.7,35.6H248c0,5.4,0.4,10.9,1.2,16.5s2.4,11,4.7,16.2c2.3,5.2,5.6,9.4,9.8,12.6c4.2,3.2,9.5,4.8,15.9,4.8
				c9.2,0,16.4-2.6,21.7-7.7s9.4-11.6,12.3-19.4L317.2,289.9z M277.6,260.8c-0.2-1.6-0.3-3.6-0.3-5.8c-0.1-2.2-0.1-5.1-0.1-8.5
				c0-9.1-1.1-16-3.3-20.7c-2.2-4.7-6.1-7.1-11.6-7.1c-4.7,0-8,2.3-9.9,6.8c-1.9,4.6-3.1,11.5-3.9,20.9l-0.4,14.3H277.6z"/>
			<path class="st2" d="M385.7,319c7.2,0,15.1-5.1,23.7-15.4c8.7-10.3,15.4-20.5,20.4-30.7h2.9v50.6H319.2v-2l67.6-99.4l-12.1-0.4
				c-7.3,0-15.3,4.9-24.1,14.6c-8.7,9.7-15.6,19.6-20.7,29.8H327v-48.6h108.8v2l-67.4,99.4L385.7,319z"/>
		</g>
		<g>
			<path class="st2" d="M198,289.4c-4.2,11.2-10.9,20-20.2,26.3c-9.3,6.3-20.2,9.5-32.7,9.5c-17.6,0-32.1-4.9-43.5-14.7
				c-11.4-9.8-17-23.3-17-40.6c0-16.1,5.9-29.4,17.6-39.7c11.7-10.4,25.8-15.6,42.3-15.6c17.2,0,30.4,4.9,39.5,14.5
				c9.1,9.7,13.7,21.6,13.7,35.6h-68.7c0,5.4,0.4,10.9,1.2,16.5s2.4,11,4.7,16.2c2.3,5.2,5.6,9.4,9.8,12.6c4.2,3.2,9.5,4.8,15.9,4.8
				c9.2,0,16.4-2.6,21.7-7.7c5.3-5.1,9.4-11.6,12.3-19.4L198,289.4z M158.4,260.3c-0.2-1.6-0.3-3.6-0.3-5.8
				c-0.1-2.2-0.1-5.1-0.1-8.5c0-9.1-1.1-16-3.3-20.7c-2.2-4.7-6.1-7.1-11.6-7.1c-4.7,0-8,2.3-9.9,6.8c-1.9,4.6-3.1,11.5-3.9,20.9
				l-0.4,14.3H158.4z"/>
			<path class="st2" d="M316.7,289.4c-4.2,11.2-10.9,20-20.2,26.3c-9.3,6.3-20.2,9.5-32.7,9.5c-17.6,0-32.1-4.9-43.5-14.7
				c-11.4-9.8-17-23.3-17-40.6c0-16.1,5.9-29.4,17.6-39.7c11.7-10.4,25.8-15.6,42.3-15.6c17.2,0,30.4,4.9,39.5,14.5
				c9.1,9.7,13.7,21.6,13.7,35.6h-68.7c0,5.4,0.4,10.9,1.2,16.5s2.4,11,4.7,16.2c2.3,5.2,5.6,9.4,9.8,12.6c4.2,3.2,9.5,4.8,15.9,4.8
				c9.2,0,16.4-2.6,21.7-7.7s9.4-11.6,12.3-19.4L316.7,289.4z M277.1,260.3c-0.2-1.6-0.3-3.6-0.3-5.8c-0.1-2.2-0.1-5.1-0.1-8.5
				c0-9.1-1.1-16-3.3-20.7c-2.2-4.7-6.1-7.1-11.6-7.1c-4.7,0-8,2.3-9.9,6.8c-1.9,4.6-3.1,11.5-3.9,20.9l-0.4,14.3H277.1z"/>
			<path class="st2" d="M385.2,318.5c7.2,0,15.1-5.1,23.7-15.4c8.7-10.3,15.4-20.5,20.4-30.7h2.9V323H318.7v-2l67.6-99.4l-12.1-0.4
				c-7.3,0-15.3,4.9-24.1,14.6c-8.7,9.7-15.6,19.6-20.7,29.8h-2.9v-48.6h108.8v2l-67.4,99.4L385.2,318.5z"/>
		</g>
		<g>
			<path class="st2" d="M197.5,288.9c-4.2,11.2-10.9,20-20.2,26.3c-9.3,6.3-20.2,9.5-32.7,9.5c-17.6,0-32.1-4.9-43.5-14.7
				c-11.4-9.8-17-23.3-17-40.6c0-16.1,5.9-29.4,17.6-39.7c11.7-10.4,25.8-15.6,42.3-15.6c17.2,0,30.4,4.9,39.5,14.5
				c9.1,9.7,13.7,21.6,13.7,35.6h-68.7c0,5.4,0.4,10.9,1.2,16.5s2.4,11,4.7,16.2c2.3,5.2,5.6,9.4,9.8,12.6c4.2,3.2,9.5,4.8,15.9,4.8
				c9.2,0,16.4-2.6,21.7-7.7c5.3-5.1,9.4-11.6,12.3-19.4L197.5,288.9z M157.9,259.8c-0.2-1.6-0.3-3.6-0.3-5.8
				c-0.1-2.2-0.1-5.1-0.1-8.5c0-9.1-1.1-16-3.3-20.7c-2.2-4.7-6.1-7.1-11.6-7.1c-4.7,0-8,2.3-9.9,6.8c-1.9,4.6-3.1,11.5-3.9,20.9
				l-0.4,14.3H157.9z"/>
			<path class="st2" d="M316.2,288.9c-4.2,11.2-10.9,20-20.2,26.3c-9.3,6.3-20.2,9.5-32.7,9.5c-17.6,0-32.1-4.9-43.5-14.7
				c-11.4-9.8-17-23.3-17-40.6c0-16.1,5.9-29.4,17.6-39.7c11.7-10.4,25.8-15.6,42.3-15.6c17.2,0,30.4,4.9,39.5,14.5
				c9.1,9.7,13.7,21.6,13.7,35.6H247c0,5.4,0.4,10.9,1.2,16.5s2.4,11,4.7,16.2c2.3,5.2,5.6,9.4,9.8,12.6c4.2,3.2,9.5,4.8,15.9,4.8
				c9.2,0,16.4-2.6,21.7-7.7s9.4-11.6,12.3-19.4L316.2,288.9z M276.6,259.8c-0.2-1.6-0.3-3.6-0.3-5.8c-0.1-2.2-0.1-5.1-0.1-8.5
				c0-9.1-1.1-16-3.3-20.7c-2.2-4.7-6.1-7.1-11.6-7.1c-4.7,0-8,2.3-9.9,6.8c-1.9,4.6-3.1,11.5-3.9,20.9l-0.4,14.3H276.6z"/>
			<path class="st2" d="M384.7,318c7.2,0,15.1-5.1,23.7-15.4c8.7-10.3,15.4-20.5,20.4-30.7h2.9v50.6H318.2v-2l67.6-99.4l-12.1-0.4
				c-7.3,0-15.3,4.9-24.1,14.6c-8.7,9.7-15.6,19.6-20.7,29.8H326v-48.6h108.8v2l-67.4,99.4L384.7,318z"/>
		</g>
		<g>
			<path class="st2" d="M197,288.4c-4.2,11.2-10.9,20-20.2,26.3c-9.3,6.3-20.2,9.5-32.7,9.5c-17.6,0-32.1-4.9-43.5-14.7
				c-11.4-9.8-17-23.3-17-40.6c0-16.1,5.9-29.4,17.6-39.7c11.7-10.4,25.8-15.6,42.3-15.6c17.2,0,30.4,4.9,39.5,14.5
				c9.1,9.7,13.7,21.6,13.7,35.6h-68.7c0,5.4,0.4,10.9,1.2,16.5s2.4,11,4.7,16.2c2.3,5.2,5.6,9.4,9.8,12.6c4.2,3.2,9.5,4.8,15.9,4.8
				c9.2,0,16.4-2.6,21.7-7.7c5.3-5.1,9.4-11.6,12.3-19.4L197,288.4z M157.4,259.3c-0.2-1.6-0.3-3.6-0.3-5.8
				c-0.1-2.2-0.1-5.1-0.1-8.5c0-9.1-1.1-16-3.3-20.7c-2.2-4.7-6.1-7.1-11.6-7.1c-4.7,0-8,2.3-9.9,6.8c-1.9,4.6-3.1,11.5-3.9,20.9
				l-0.4,14.3H157.4z"/>
			<path class="st2" d="M315.7,288.4c-4.2,11.2-10.9,20-20.2,26.3c-9.3,6.3-20.2,9.5-32.7,9.5c-17.6,0-32.1-4.9-43.5-14.7
				c-11.4-9.8-17-23.3-17-40.6c0-16.1,5.9-29.4,17.6-39.7c11.7-10.4,25.8-15.6,42.3-15.6c17.2,0,30.4,4.9,39.5,14.5
				c9.1,9.7,13.7,21.6,13.7,35.6h-68.7c0,5.4,0.4,10.9,1.2,16.5s2.4,11,4.7,16.2c2.3,5.2,5.6,9.4,9.8,12.6c4.2,3.2,9.5,4.8,15.9,4.8
				c9.2,0,16.4-2.6,21.7-7.7s9.4-11.6,12.3-19.4L315.7,288.4z M276.1,259.3c-0.2-1.6-0.3-3.6-0.3-5.8c-0.1-2.2-0.1-5.1-0.1-8.5
				c0-9.1-1.1-16-3.3-20.7c-2.2-4.7-6.1-7.1-11.6-7.1c-4.7,0-8,2.3-9.9,6.8c-1.9,4.6-3.1,11.5-3.9,20.9l-0.4,14.3H276.1z"/>
			<path class="st2" d="M384.2,317.5c7.2,0,15.1-5.1,23.7-15.4c8.7-10.3,15.4-20.5,20.4-30.7h2.9V322H317.7v-2l67.6-99.4l-12.1-0.4
				c-7.3,0-15.3,4.9-24.1,14.6c-8.7,9.7-15.6,19.6-20.7,29.8h-2.9v-48.6h108.8v2l-67.4,99.4L384.2,317.5z"/>
		</g>
		<g>
			<path class="st2" d="M196.5,287.9c-4.2,11.2-10.9,20-20.2,26.3c-9.3,6.3-20.2,9.5-32.7,9.5c-17.6,0-32.1-4.9-43.5-14.7
				c-11.4-9.8-17-23.3-17-40.6c0-16.1,5.9-29.4,17.6-39.7c11.7-10.4,25.8-15.6,42.3-15.6c17.2,0,30.4,4.9,39.5,14.5
				c9.1,9.7,13.7,21.6,13.7,35.6h-68.7c0,5.4,0.4,10.9,1.2,16.5s2.4,11,4.7,16.2c2.3,5.2,5.6,9.4,9.8,12.6c4.2,3.2,9.5,4.8,15.9,4.8
				c9.2,0,16.4-2.6,21.7-7.7c5.3-5.1,9.4-11.6,12.3-19.4L196.5,287.9z M156.9,258.8c-0.2-1.6-0.3-3.6-0.3-5.8
				c-0.1-2.2-0.1-5.1-0.1-8.5c0-9.1-1.1-16-3.3-20.7c-2.2-4.7-6.1-7.1-11.6-7.1c-4.7,0-8,2.3-9.9,6.8c-1.9,4.6-3.1,11.5-3.9,20.9
				l-0.4,14.3H156.9z"/>
			<path class="st2" d="M315.2,287.9c-4.2,11.2-10.9,20-20.2,26.3c-9.3,6.3-20.2,9.5-32.7,9.5c-17.6,0-32.1-4.9-43.5-14.7
				c-11.4-9.8-17-23.3-17-40.6c0-16.1,5.9-29.4,17.6-39.7c11.7-10.4,25.8-15.6,42.3-15.6c17.2,0,30.4,4.9,39.5,14.5
				c9.1,9.7,13.7,21.6,13.7,35.6H246c0,5.4,0.4,10.9,1.2,16.5s2.4,11,4.7,16.2c2.3,5.2,5.6,9.4,9.8,12.6c4.2,3.2,9.5,4.8,15.9,4.8
				c9.2,0,16.4-2.6,21.7-7.7s9.4-11.6,12.3-19.4L315.2,287.9z M275.6,258.8c-0.2-1.6-0.3-3.6-0.3-5.8c-0.1-2.2-0.1-5.1-0.1-8.5
				c0-9.1-1.1-16-3.3-20.7c-2.2-4.7-6.1-7.1-11.6-7.1c-4.7,0-8,2.3-9.9,6.8c-1.9,4.6-3.1,11.5-3.9,20.9l-0.4,14.3H275.6z"/>
			<path class="st2" d="M383.7,317c7.2,0,15.1-5.1,23.7-15.4c8.7-10.3,15.4-20.5,20.4-30.7h2.9v50.6H317.2v-2l67.6-99.4l-12.1-0.4
				c-7.3,0-15.3,4.9-24.1,14.6c-8.7,9.7-15.6,19.6-20.7,29.8H325v-48.6h108.8v2l-67.4,99.4L383.7,317z"/>
		</g>
		<g>
			<path class="st2" d="M196,287.4c-4.2,11.2-10.9,20-20.2,26.3c-9.3,6.3-20.2,9.5-32.7,9.5c-17.6,0-32.1-4.9-43.5-14.7
				c-11.4-9.8-17-23.3-17-40.6c0-16.1,5.9-29.4,17.6-39.7c11.7-10.4,25.8-15.6,42.3-15.6c17.2,0,30.4,4.9,39.5,14.5
				c9.1,9.7,13.7,21.6,13.7,35.6h-68.7c0,5.4,0.4,10.9,1.2,16.5s2.4,11,4.7,16.2c2.3,5.2,5.6,9.4,9.8,12.6c4.2,3.2,9.5,4.8,15.9,4.8
				c9.2,0,16.4-2.6,21.7-7.7c5.3-5.1,9.4-11.6,12.3-19.4L196,287.4z M156.4,258.3c-0.2-1.6-0.3-3.6-0.3-5.8
				c-0.1-2.2-0.1-5.1-0.1-8.5c0-9.1-1.1-16-3.3-20.7c-2.2-4.7-6.1-7.1-11.6-7.1c-4.7,0-8,2.3-9.9,6.8c-1.9,4.6-3.1,11.5-3.9,20.9
				l-0.4,14.3H156.4z"/>
			<path class="st2" d="M314.7,287.4c-4.2,11.2-10.9,20-20.2,26.3c-9.3,6.3-20.2,9.5-32.7,9.5c-17.6,0-32.1-4.9-43.5-14.7
				c-11.4-9.8-17-23.3-17-40.6c0-16.1,5.9-29.4,17.6-39.7c11.7-10.4,25.8-15.6,42.3-15.6c17.2,0,30.4,4.9,39.5,14.5
				c9.1,9.7,13.7,21.6,13.7,35.6h-68.7c0,5.4,0.4,10.9,1.2,16.5s2.4,11,4.7,16.2c2.3,5.2,5.6,9.4,9.8,12.6c4.2,3.2,9.5,4.8,15.9,4.8
				c9.2,0,16.4-2.6,21.7-7.7s9.4-11.6,12.3-19.4L314.7,287.4z M275.1,258.3c-0.2-1.6-0.3-3.6-0.3-5.8c-0.1-2.2-0.1-5.1-0.1-8.5
				c0-9.1-1.1-16-3.3-20.7c-2.2-4.7-6.1-7.1-11.6-7.1c-4.7,0-8,2.3-9.9,6.8c-1.9,4.6-3.1,11.5-3.9,20.9l-0.4,14.3H275.1z"/>
			<path class="st2" d="M383.2,316.5c7.2,0,15.1-5.1,23.7-15.4c8.7-10.3,15.4-20.5,20.4-30.7h2.9V321H316.7v-2l67.6-99.4l-12.1-0.4
				c-7.3,0-15.3,4.9-24.1,14.6c-8.7,9.7-15.6,19.6-20.7,29.8h-2.9v-48.6h108.8v2l-67.4,99.4L383.2,316.5z"/>
		</g>
		<g>
			<path class="st2" d="M195.5,286.9c-4.2,11.2-10.9,20-20.2,26.3c-9.3,6.3-20.2,9.5-32.7,9.5c-17.6,0-32.1-4.9-43.5-14.7
				c-11.4-9.8-17-23.3-17-40.6c0-16.1,5.9-29.4,17.6-39.7c11.7-10.4,25.8-15.6,42.3-15.6c17.2,0,30.4,4.9,39.5,14.5
				c9.1,9.7,13.7,21.6,13.7,35.6h-68.7c0,5.4,0.4,10.9,1.2,16.5s2.4,11,4.7,16.2c2.3,5.2,5.6,9.4,9.8,12.6c4.2,3.2,9.5,4.8,15.9,4.8
				c9.2,0,16.4-2.6,21.7-7.7c5.3-5.1,9.4-11.6,12.3-19.4L195.5,286.9z M155.9,257.8c-0.2-1.6-0.3-3.6-0.3-5.8
				c-0.1-2.2-0.1-5.1-0.1-8.5c0-9.1-1.1-16-3.3-20.7c-2.2-4.7-6.1-7.1-11.6-7.1c-4.7,0-8,2.3-9.9,6.8c-1.9,4.6-3.1,11.5-3.9,20.9
				l-0.4,14.3H155.9z"/>
			<path class="st2" d="M314.2,286.9c-4.2,11.2-10.9,20-20.2,26.3c-9.3,6.3-20.2,9.5-32.7,9.5c-17.6,0-32.1-4.9-43.5-14.7
				c-11.4-9.8-17-23.3-17-40.6c0-16.1,5.9-29.4,17.6-39.7c11.7-10.4,25.8-15.6,42.3-15.6c17.2,0,30.4,4.9,39.5,14.5
				c9.1,9.7,13.7,21.6,13.7,35.6H245c0,5.4,0.4,10.9,1.2,16.5s2.4,11,4.7,16.2c2.3,5.2,5.6,9.4,9.8,12.6c4.2,3.2,9.5,4.8,15.9,4.8
				c9.2,0,16.4-2.6,21.7-7.7s9.4-11.6,12.3-19.4L314.2,286.9z M274.6,257.8c-0.2-1.6-0.3-3.6-0.3-5.8c-0.1-2.2-0.1-5.1-0.1-8.5
				c0-9.1-1.1-16-3.3-20.7c-2.2-4.7-6.1-7.1-11.6-7.1c-4.7,0-8,2.3-9.9,6.8c-1.9,4.6-3.1,11.5-3.9,20.9l-0.4,14.3H274.6z"/>
			<path class="st2" d="M382.7,316c7.2,0,15.1-5.1,23.7-15.4c8.7-10.3,15.4-20.5,20.4-30.7h2.9v50.6H316.2v-2l67.6-99.4l-12.1-0.4
				c-7.3,0-15.3,4.9-24.1,14.6c-8.7,9.7-15.6,19.6-20.7,29.8H324v-48.6h108.8v2l-67.4,99.4L382.7,316z"/>
		</g>
		<g>
			<path class="st2" d="M195,286.4c-4.2,11.2-10.9,20-20.2,26.3c-9.3,6.3-20.2,9.5-32.7,9.5c-17.6,0-32.1-4.9-43.5-14.7
				c-11.4-9.8-17-23.3-17-40.6c0-16.1,5.9-29.4,17.6-39.7c11.7-10.4,25.8-15.6,42.3-15.6c17.2,0,30.4,4.9,39.5,14.5
				c9.1,9.7,13.7,21.6,13.7,35.6h-68.7c0,5.4,0.4,10.9,1.2,16.5s2.4,11,4.7,16.2c2.3,5.2,5.6,9.4,9.8,12.6c4.2,3.2,9.5,4.8,15.9,4.8
				c9.2,0,16.4-2.6,21.7-7.7c5.3-5.1,9.4-11.6,12.3-19.4L195,286.4z M155.4,257.3c-0.2-1.6-0.3-3.6-0.3-5.8
				c-0.1-2.2-0.1-5.1-0.1-8.5c0-9.1-1.1-16-3.3-20.7c-2.2-4.7-6.1-7.1-11.6-7.1c-4.7,0-8,2.3-9.9,6.8c-1.9,4.6-3.1,11.5-3.9,20.9
				l-0.4,14.3H155.4z"/>
			<path class="st2" d="M313.7,286.4c-4.2,11.2-10.9,20-20.2,26.3c-9.3,6.3-20.2,9.5-32.7,9.5c-17.6,0-32.1-4.9-43.5-14.7
				c-11.4-9.8-17-23.3-17-40.6c0-16.1,5.9-29.4,17.6-39.7c11.7-10.4,25.8-15.6,42.3-15.6c17.2,0,30.4,4.9,39.5,14.5
				c9.1,9.7,13.7,21.6,13.7,35.6h-68.7c0,5.4,0.4,10.9,1.2,16.5s2.4,11,4.7,16.2c2.3,5.2,5.6,9.4,9.8,12.6c4.2,3.2,9.5,4.8,15.9,4.8
				c9.2,0,16.4-2.6,21.7-7.7s9.4-11.6,12.3-19.4L313.7,286.4z M274.1,257.3c-0.2-1.6-0.3-3.6-0.3-5.8c-0.1-2.2-0.1-5.1-0.1-8.5
				c0-9.1-1.1-16-3.3-20.7c-2.2-4.7-6.1-7.1-11.6-7.1c-4.7,0-8,2.3-9.9,6.8c-1.9,4.6-3.1,11.5-3.9,20.9l-0.4,14.3H274.1z"/>
			<path class="st2" d="M382.2,315.5c7.2,0,15.1-5.1,23.7-15.4c8.7-10.3,15.4-20.5,20.4-30.7h2.9V320H315.7v-2l67.6-99.4l-12.1-0.4
				c-7.3,0-15.3,4.9-24.1,14.6c-8.7,9.7-15.6,19.6-20.7,29.8h-2.9v-48.6h108.8v2l-67.4,99.4L382.2,315.5z"/>
		</g>
		<g>
			<path class="st2" d="M194.5,285.9c-4.2,11.2-10.9,20-20.2,26.3c-9.3,6.3-20.2,9.5-32.7,9.5c-17.6,0-32.1-4.9-43.5-14.7
				c-11.4-9.8-17-23.3-17-40.6c0-16.1,5.9-29.4,17.6-39.7c11.7-10.4,25.8-15.6,42.3-15.6c17.2,0,30.4,4.9,39.5,14.5
				c9.1,9.7,13.7,21.6,13.7,35.6h-68.7c0,5.4,0.4,10.9,1.2,16.5s2.4,11,4.7,16.2c2.3,5.2,5.6,9.4,9.8,12.6c4.2,3.2,9.5,4.8,15.9,4.8
				c9.2,0,16.4-2.6,21.7-7.7c5.3-5.1,9.4-11.6,12.3-19.4L194.5,285.9z M154.9,256.8c-0.2-1.6-0.3-3.6-0.3-5.8
				c-0.1-2.2-0.1-5.1-0.1-8.5c0-9.1-1.1-16-3.3-20.7c-2.2-4.7-6.1-7.1-11.6-7.1c-4.7,0-8,2.3-9.9,6.8c-1.9,4.6-3.1,11.5-3.9,20.9
				l-0.4,14.3H154.9z"/>
			<path class="st2" d="M313.2,285.9c-4.2,11.2-10.9,20-20.2,26.3c-9.3,6.3-20.2,9.5-32.7,9.5c-17.6,0-32.1-4.9-43.5-14.7
				c-11.4-9.8-17-23.3-17-40.6c0-16.1,5.9-29.4,17.6-39.7c11.7-10.4,25.8-15.6,42.3-15.6c17.2,0,30.4,4.9,39.5,14.5
				c9.1,9.7,13.7,21.6,13.7,35.6H244c0,5.4,0.4,10.9,1.2,16.5s2.4,11,4.7,16.2c2.3,5.2,5.6,9.4,9.8,12.6c4.2,3.2,9.5,4.8,15.9,4.8
				c9.2,0,16.4-2.6,21.7-7.7s9.4-11.6,12.3-19.4L313.2,285.9z M273.6,256.8c-0.2-1.6-0.3-3.6-0.3-5.8c-0.1-2.2-0.1-5.1-0.1-8.5
				c0-9.1-1.1-16-3.3-20.7c-2.2-4.7-6.1-7.1-11.6-7.1c-4.7,0-8,2.3-9.9,6.8c-1.9,4.6-3.1,11.5-3.9,20.9l-0.4,14.3H273.6z"/>
			<path class="st2" d="M381.7,315c7.2,0,15.1-5.1,23.7-15.4c8.7-10.3,15.4-20.5,20.4-30.7h2.9v50.6H315.2v-2l67.6-99.4l-12.1-0.4
				c-7.3,0-15.3,4.9-24.1,14.6c-8.7,9.7-15.6,19.6-20.7,29.8H323v-48.6h108.8v2l-67.4,99.4L381.7,315z"/>
		</g>
		<g>
			<path class="st2" d="M194,285.4c-4.2,11.2-10.9,20-20.2,26.3c-9.3,6.3-20.2,9.5-32.7,9.5c-17.6,0-32.1-4.9-43.5-14.7
				c-11.4-9.8-17-23.3-17-40.6c0-16.1,5.9-29.4,17.6-39.7c11.7-10.4,25.8-15.6,42.3-15.6c17.2,0,30.4,4.9,39.5,14.5
				c9.1,9.7,13.7,21.6,13.7,35.6h-68.7c0,5.4,0.4,10.9,1.2,16.5s2.4,11,4.7,16.2c2.3,5.2,5.6,9.4,9.8,12.6c4.2,3.2,9.5,4.8,15.9,4.8
				c9.2,0,16.4-2.6,21.7-7.7c5.3-5.1,9.4-11.6,12.3-19.4L194,285.4z M154.4,256.3c-0.2-1.6-0.3-3.6-0.3-5.8
				c-0.1-2.2-0.1-5.1-0.1-8.5c0-9.1-1.1-16-3.3-20.7c-2.2-4.7-6.1-7.1-11.6-7.1c-4.7,0-8,2.3-9.9,6.8c-1.9,4.6-3.1,11.5-3.9,20.9
				l-0.4,14.3H154.4z"/>
			<path class="st2" d="M312.7,285.4c-4.2,11.2-10.9,20-20.2,26.3c-9.3,6.3-20.2,9.5-32.7,9.5c-17.6,0-32.1-4.9-43.5-14.7
				c-11.4-9.8-17-23.3-17-40.6c0-16.1,5.9-29.4,17.6-39.7c11.7-10.4,25.8-15.6,42.3-15.6c17.2,0,30.4,4.9,39.5,14.5
				c9.1,9.7,13.7,21.6,13.7,35.6h-68.7c0,5.4,0.4,10.9,1.2,16.5s2.4,11,4.7,16.2c2.3,5.2,5.6,9.4,9.8,12.6c4.2,3.2,9.5,4.8,15.9,4.8
				c9.2,0,16.4-2.6,21.7-7.7s9.4-11.6,12.3-19.4L312.7,285.4z M273.1,256.3c-0.2-1.6-0.3-3.6-0.3-5.8c-0.1-2.2-0.1-5.1-0.1-8.5
				c0-9.1-1.1-16-3.3-20.7c-2.2-4.7-6.1-7.1-11.6-7.1c-4.7,0-8,2.3-9.9,6.8c-1.9,4.6-3.1,11.5-3.9,20.9l-0.4,14.3H273.1z"/>
			<path class="st2" d="M381.2,314.5c7.2,0,15.1-5.1,23.7-15.4c8.7-10.3,15.4-20.5,20.4-30.7h2.9V319H314.7v-2l67.6-99.4l-12.1-0.4
				c-7.3,0-15.3,4.9-24.1,14.6c-8.7,9.7-15.6,19.6-20.7,29.8h-2.9v-48.6h108.8v2l-67.4,99.4L381.2,314.5z"/>
		</g>
		<g>
			<path class="st2" d="M193.5,284.9c-4.2,11.2-10.9,20-20.2,26.3c-9.3,6.3-20.2,9.5-32.7,9.5c-17.6,0-32.1-4.9-43.5-14.7
				c-11.4-9.8-17-23.3-17-40.6c0-16.1,5.9-29.4,17.6-39.7c11.7-10.4,25.8-15.6,42.3-15.6c17.2,0,30.4,4.9,39.5,14.5
				c9.1,9.7,13.7,21.6,13.7,35.6h-68.7c0,5.4,0.4,10.9,1.2,16.5s2.4,11,4.7,16.2c2.3,5.2,5.6,9.4,9.8,12.6c4.2,3.2,9.5,4.8,15.9,4.8
				c9.2,0,16.4-2.6,21.7-7.7c5.3-5.1,9.4-11.6,12.3-19.4L193.5,284.9z M153.9,255.8c-0.2-1.6-0.3-3.6-0.3-5.8
				c-0.1-2.2-0.1-5.1-0.1-8.5c0-9.1-1.1-16-3.3-20.7c-2.2-4.7-6.1-7.1-11.6-7.1c-4.7,0-8,2.3-9.9,6.8c-1.9,4.6-3.1,11.5-3.9,20.9
				l-0.4,14.3H153.9z"/>
			<path class="st2" d="M312.2,284.9c-4.2,11.2-10.9,20-20.2,26.3c-9.3,6.3-20.2,9.5-32.7,9.5c-17.6,0-32.1-4.9-43.5-14.7
				c-11.4-9.8-17-23.3-17-40.6c0-16.1,5.9-29.4,17.6-39.7c11.7-10.4,25.8-15.6,42.3-15.6c17.2,0,30.4,4.9,39.5,14.5
				c9.1,9.7,13.7,21.6,13.7,35.6H243c0,5.4,0.4,10.9,1.2,16.5s2.4,11,4.7,16.2c2.3,5.2,5.6,9.4,9.8,12.6c4.2,3.2,9.5,4.8,15.9,4.8
				c9.2,0,16.4-2.6,21.7-7.7s9.4-11.6,12.3-19.4L312.2,284.9z M272.6,255.8c-0.2-1.6-0.3-3.6-0.3-5.8c-0.1-2.2-0.1-5.1-0.1-8.5
				c0-9.1-1.1-16-3.3-20.7c-2.2-4.7-6.1-7.1-11.6-7.1c-4.7,0-8,2.3-9.9,6.8c-1.9,4.6-3.1,11.5-3.9,20.9l-0.4,14.3H272.6z"/>
			<path class="st2" d="M380.7,314c7.2,0,15.1-5.1,23.7-15.4c8.7-10.3,15.4-20.5,20.4-30.7h2.9v50.6H314.2v-2l67.6-99.4l-12.1-0.4
				c-7.3,0-15.3,4.9-24.1,14.6c-8.7,9.7-15.6,19.6-20.7,29.8H322v-48.6h108.8v2l-67.4,99.4L380.7,314z"/>
		</g>
		<g>
			<path class="st2" d="M193,284.4c-4.2,11.2-10.9,20-20.2,26.3c-9.3,6.3-20.2,9.5-32.7,9.5c-17.6,0-32.1-4.9-43.5-14.7
				c-11.4-9.8-17-23.3-17-40.6c0-16.1,5.9-29.4,17.6-39.7c11.7-10.4,25.8-15.6,42.3-15.6c17.2,0,30.4,4.9,39.5,14.5
				c9.1,9.7,13.7,21.6,13.7,35.6h-68.7c0,5.4,0.4,10.9,1.2,16.5s2.4,11,4.7,16.2c2.3,5.2,5.6,9.4,9.8,12.6c4.2,3.2,9.5,4.8,15.9,4.8
				c9.2,0,16.4-2.6,21.7-7.7c5.3-5.1,9.4-11.6,12.3-19.4L193,284.4z M153.4,255.3c-0.2-1.6-0.3-3.6-0.3-5.8
				c-0.1-2.2-0.1-5.1-0.1-8.5c0-9.1-1.1-16-3.3-20.7c-2.2-4.7-6.1-7.1-11.6-7.1c-4.7,0-8,2.3-9.9,6.8c-1.9,4.6-3.1,11.5-3.9,20.9
				l-0.4,14.3H153.4z"/>
			<path class="st2" d="M311.7,284.4c-4.2,11.2-10.9,20-20.2,26.3c-9.3,6.3-20.2,9.5-32.7,9.5c-17.6,0-32.1-4.9-43.5-14.7
				c-11.4-9.8-17-23.3-17-40.6c0-16.1,5.9-29.4,17.6-39.7c11.7-10.4,25.8-15.6,42.3-15.6c17.2,0,30.4,4.9,39.5,14.5
				c9.1,9.7,13.7,21.6,13.7,35.6h-68.7c0,5.4,0.4,10.9,1.2,16.5s2.4,11,4.7,16.2c2.3,5.2,5.6,9.4,9.8,12.6c4.2,3.2,9.5,4.8,15.9,4.8
				c9.2,0,16.4-2.6,21.7-7.7s9.4-11.6,12.3-19.4L311.7,284.4z M272.1,255.3c-0.2-1.6-0.3-3.6-0.3-5.8c-0.1-2.2-0.1-5.1-0.1-8.5
				c0-9.1-1.1-16-3.3-20.7c-2.2-4.7-6.1-7.1-11.6-7.1c-4.7,0-8,2.3-9.9,6.8c-1.9,4.6-3.1,11.5-3.9,20.9l-0.4,14.3H272.1z"/>
			<path class="st2" d="M380.2,313.5c7.2,0,15.1-5.1,23.7-15.4c8.7-10.3,15.4-20.5,20.4-30.7h2.9V318H313.7v-2l67.6-99.4l-12.1-0.4
				c-7.3,0-15.3,4.9-24.1,14.6c-8.7,9.7-15.6,19.6-20.7,29.8h-2.9v-48.6h108.8v2l-67.4,99.4L380.2,313.5z"/>
		</g>
		<g>
			<path class="st2" d="M192.5,283.9c-4.2,11.2-10.9,20-20.2,26.3c-9.3,6.3-20.2,9.5-32.7,9.5c-17.6,0-32.1-4.9-43.5-14.7
				c-11.4-9.8-17-23.3-17-40.6c0-16.1,5.9-29.4,17.6-39.7c11.7-10.4,25.8-15.6,42.3-15.6c17.2,0,30.4,4.9,39.5,14.5
				c9.1,9.7,13.7,21.6,13.7,35.6h-68.7c0,5.4,0.4,10.9,1.2,16.5s2.4,11,4.7,16.2c2.3,5.2,5.6,9.4,9.8,12.6c4.2,3.2,9.5,4.8,15.9,4.8
				c9.2,0,16.4-2.6,21.7-7.7c5.3-5.1,9.4-11.6,12.3-19.4L192.5,283.9z M152.9,254.8c-0.2-1.6-0.3-3.6-0.3-5.8
				c-0.1-2.2-0.1-5.1-0.1-8.5c0-9.1-1.1-16-3.3-20.7c-2.2-4.7-6.1-7.1-11.6-7.1c-4.7,0-8,2.3-9.9,6.8c-1.9,4.6-3.1,11.5-3.9,20.9
				l-0.4,14.3H152.9z"/>
			<path class="st2" d="M311.2,283.9c-4.2,11.2-10.9,20-20.2,26.3c-9.3,6.3-20.2,9.5-32.7,9.5c-17.6,0-32.1-4.9-43.5-14.7
				c-11.4-9.8-17-23.3-17-40.6c0-16.1,5.9-29.4,17.6-39.7c11.7-10.4,25.8-15.6,42.3-15.6c17.2,0,30.4,4.9,39.5,14.5
				c9.1,9.7,13.7,21.6,13.7,35.6H242c0,5.4,0.4,10.9,1.2,16.5s2.4,11,4.7,16.2c2.3,5.2,5.6,9.4,9.8,12.6c4.2,3.2,9.5,4.8,15.9,4.8
				c9.2,0,16.4-2.6,21.7-7.7s9.4-11.6,12.3-19.4L311.2,283.9z M271.6,254.8c-0.2-1.6-0.3-3.6-0.3-5.8c-0.1-2.2-0.1-5.1-0.1-8.5
				c0-9.1-1.1-16-3.3-20.7c-2.2-4.7-6.1-7.1-11.6-7.1c-4.7,0-8,2.3-9.9,6.8c-1.9,4.6-3.1,11.5-3.9,20.9l-0.4,14.3H271.6z"/>
			<path class="st2" d="M379.7,313c7.2,0,15.1-5.1,23.7-15.4c8.7-10.3,15.4-20.5,20.4-30.7h2.9v50.6H313.2v-2l67.6-99.4l-12.1-0.4
				c-7.3,0-15.3,4.9-24.1,14.6c-8.7,9.7-15.6,19.6-20.7,29.8H321v-48.6h108.8v2l-67.4,99.4L379.7,313z"/>
		</g>
		<g>
			<path class="st2" d="M192,283.4c-4.2,11.2-10.9,20-20.2,26.3c-9.3,6.3-20.2,9.5-32.7,9.5c-17.6,0-32.1-4.9-43.5-14.7
				c-11.4-9.8-17-23.3-17-40.6c0-16.1,5.9-29.4,17.6-39.7c11.7-10.4,25.8-15.6,42.3-15.6c17.2,0,30.4,4.9,39.5,14.5
				c9.1,9.7,13.7,21.6,13.7,35.6h-68.7c0,5.4,0.4,10.9,1.2,16.5s2.4,11,4.7,16.2c2.3,5.2,5.6,9.4,9.8,12.6c4.2,3.2,9.5,4.8,15.9,4.8
				c9.2,0,16.4-2.6,21.7-7.7c5.3-5.1,9.4-11.6,12.3-19.4L192,283.4z M152.4,254.3c-0.2-1.6-0.3-3.6-0.3-5.8
				c-0.1-2.2-0.1-5.1-0.1-8.5c0-9.1-1.1-16-3.3-20.7c-2.2-4.7-6.1-7.1-11.6-7.1c-4.7,0-8,2.3-9.9,6.8c-1.9,4.6-3.1,11.5-3.9,20.9
				l-0.4,14.3H152.4z"/>
			<path class="st2" d="M310.7,283.4c-4.2,11.2-10.9,20-20.2,26.3c-9.3,6.3-20.2,9.5-32.7,9.5c-17.6,0-32.1-4.9-43.5-14.7
				c-11.4-9.8-17-23.3-17-40.6c0-16.1,5.9-29.4,17.6-39.7c11.7-10.4,25.8-15.6,42.3-15.6c17.2,0,30.4,4.9,39.5,14.5
				c9.1,9.7,13.7,21.6,13.7,35.6h-68.7c0,5.4,0.4,10.9,1.2,16.5s2.4,11,4.7,16.2c2.3,5.2,5.6,9.4,9.8,12.6c4.2,3.2,9.5,4.8,15.9,4.8
				c9.2,0,16.4-2.6,21.7-7.7s9.4-11.6,12.3-19.4L310.7,283.4z M271.1,254.3c-0.2-1.6-0.3-3.6-0.3-5.8c-0.1-2.2-0.1-5.1-0.1-8.5
				c0-9.1-1.1-16-3.3-20.7c-2.2-4.7-6.1-7.1-11.6-7.1c-4.7,0-8,2.3-9.9,6.8c-1.9,4.6-3.1,11.5-3.9,20.9l-0.4,14.3H271.1z"/>
			<path class="st2" d="M379.2,312.5c7.2,0,15.1-5.1,23.7-15.4c8.7-10.3,15.4-20.5,20.4-30.7h2.9V317H312.7v-2l67.6-99.4l-12.1-0.4
				c-7.3,0-15.3,4.9-24.1,14.6c-8.7,9.7-15.6,19.6-20.7,29.8h-2.9v-48.6h108.8v2l-67.4,99.4L379.2,312.5z"/>
		</g>
		<g>
			<path class="st2" d="M191.5,282.9c-4.2,11.2-10.9,20-20.2,26.3c-9.3,6.3-20.2,9.5-32.7,9.5c-17.6,0-32.1-4.9-43.5-14.7
				c-11.4-9.8-17-23.3-17-40.6c0-16.1,5.9-29.4,17.6-39.7c11.7-10.4,25.8-15.6,42.3-15.6c17.2,0,30.4,4.9,39.5,14.5
				c9.1,9.7,13.7,21.6,13.7,35.6h-68.7c0,5.4,0.4,10.9,1.2,16.5s2.4,11,4.7,16.2c2.3,5.2,5.6,9.4,9.8,12.6c4.2,3.2,9.5,4.8,15.9,4.8
				c9.2,0,16.4-2.6,21.7-7.7c5.3-5.1,9.4-11.6,12.3-19.4L191.5,282.9z M151.9,253.8c-0.2-1.6-0.3-3.6-0.3-5.8
				c-0.1-2.2-0.1-5.1-0.1-8.5c0-9.1-1.1-16-3.3-20.7c-2.2-4.7-6.1-7.1-11.6-7.1c-4.7,0-8,2.3-9.9,6.8c-1.9,4.6-3.1,11.5-3.9,20.9
				l-0.4,14.3H151.9z"/>
			<path class="st2" d="M310.2,282.9c-4.2,11.2-10.9,20-20.2,26.3c-9.3,6.3-20.2,9.5-32.7,9.5c-17.6,0-32.1-4.9-43.5-14.7
				c-11.4-9.8-17-23.3-17-40.6c0-16.1,5.9-29.4,17.6-39.7c11.7-10.4,25.8-15.6,42.3-15.6c17.2,0,30.4,4.9,39.5,14.5
				c9.1,9.7,13.7,21.6,13.7,35.6H241c0,5.4,0.4,10.9,1.2,16.5s2.4,11,4.7,16.2c2.3,5.2,5.6,9.4,9.8,12.6c4.2,3.2,9.5,4.8,15.9,4.8
				c9.2,0,16.4-2.6,21.7-7.7s9.4-11.6,12.3-19.4L310.2,282.9z M270.6,253.8c-0.2-1.6-0.3-3.6-0.3-5.8c-0.1-2.2-0.1-5.1-0.1-8.5
				c0-9.1-1.1-16-3.3-20.7c-2.2-4.7-6.1-7.1-11.6-7.1c-4.7,0-8,2.3-9.9,6.8c-1.9,4.6-3.1,11.5-3.9,20.9l-0.4,14.3H270.6z"/>
			<path class="st2" d="M378.7,312c7.2,0,15.1-5.1,23.7-15.4c8.7-10.3,15.4-20.5,20.4-30.7h2.9v50.6H312.2v-2l67.6-99.4l-12.1-0.4
				c-7.3,0-15.3,4.9-24.1,14.6c-8.7,9.7-15.6,19.6-20.7,29.8H320v-48.6h108.8v2l-67.4,99.4L378.7,312z"/>
		</g>
		<g>
			<path class="st2" d="M191,282.4c-4.2,11.2-10.9,20-20.2,26.3c-9.3,6.3-20.2,9.5-32.7,9.5c-17.6,0-32.1-4.9-43.5-14.7
				c-11.4-9.8-17-23.3-17-40.6c0-16.1,5.9-29.4,17.6-39.7c11.7-10.4,25.8-15.6,42.3-15.6c17.2,0,30.4,4.9,39.5,14.5
				c9.1,9.7,13.7,21.6,13.7,35.6h-68.7c0,5.4,0.4,10.9,1.2,16.5s2.4,11,4.7,16.2c2.3,5.2,5.6,9.4,9.8,12.6c4.2,3.2,9.5,4.8,15.9,4.8
				c9.2,0,16.4-2.6,21.7-7.7c5.3-5.1,9.4-11.6,12.3-19.4L191,282.4z M151.4,253.3c-0.2-1.6-0.3-3.6-0.3-5.8
				c-0.1-2.2-0.1-5.1-0.1-8.5c0-9.1-1.1-16-3.3-20.7c-2.2-4.7-6.1-7.1-11.6-7.1c-4.7,0-8,2.3-9.9,6.8c-1.9,4.6-3.1,11.5-3.9,20.9
				l-0.4,14.3H151.4z"/>
			<path class="st2" d="M309.7,282.4c-4.2,11.2-10.9,20-20.2,26.3c-9.3,6.3-20.2,9.5-32.7,9.5c-17.6,0-32.1-4.9-43.5-14.7
				c-11.4-9.8-17-23.3-17-40.6c0-16.1,5.9-29.4,17.6-39.7c11.7-10.4,25.8-15.6,42.3-15.6c17.2,0,30.4,4.9,39.5,14.5
				c9.1,9.7,13.7,21.6,13.7,35.6h-68.7c0,5.4,0.4,10.9,1.2,16.5s2.4,11,4.7,16.2c2.3,5.2,5.6,9.4,9.8,12.6c4.2,3.2,9.5,4.8,15.9,4.8
				c9.2,0,16.4-2.6,21.7-7.7s9.4-11.6,12.3-19.4L309.7,282.4z M270.1,253.3c-0.2-1.6-0.3-3.6-0.3-5.8c-0.1-2.2-0.1-5.1-0.1-8.5
				c0-9.1-1.1-16-3.3-20.7c-2.2-4.7-6.1-7.1-11.6-7.1c-4.7,0-8,2.3-9.9,6.8c-1.9,4.6-3.1,11.5-3.9,20.9l-0.4,14.3H270.1z"/>
			<path class="st2" d="M378.2,311.5c7.2,0,15.1-5.1,23.7-15.4c8.7-10.3,15.4-20.5,20.4-30.7h2.9V316H311.7v-2l67.6-99.4l-12.1-0.4
				c-7.3,0-15.3,4.9-24.1,14.6c-8.7,9.7-15.6,19.6-20.7,29.8h-2.9v-48.6h108.8v2l-67.4,99.4L378.2,311.5z"/>
		</g>
		<g>
			<path class="st2" d="M190.5,281.9c-4.2,11.2-10.9,20-20.2,26.3c-9.3,6.3-20.2,9.5-32.7,9.5c-17.6,0-32.1-4.9-43.5-14.7
				c-11.4-9.8-17-23.3-17-40.6c0-16.1,5.9-29.4,17.6-39.7c11.7-10.4,25.8-15.6,42.3-15.6c17.2,0,30.4,4.9,39.5,14.5
				c9.1,9.7,13.7,21.6,13.7,35.6h-68.7c0,5.4,0.4,10.9,1.2,16.5s2.4,11,4.7,16.2c2.3,5.2,5.6,9.4,9.8,12.6c4.2,3.2,9.5,4.8,15.9,4.8
				c9.2,0,16.4-2.6,21.7-7.7c5.3-5.1,9.4-11.6,12.3-19.4L190.5,281.9z M150.9,252.8c-0.2-1.6-0.3-3.6-0.3-5.8
				c-0.1-2.2-0.1-5.1-0.1-8.5c0-9.1-1.1-16-3.3-20.7c-2.2-4.7-6.1-7.1-11.6-7.1c-4.7,0-8,2.3-9.9,6.8c-1.9,4.6-3.1,11.5-3.9,20.9
				l-0.4,14.3H150.9z"/>
			<path class="st2" d="M309.2,281.9c-4.2,11.2-10.9,20-20.2,26.3c-9.3,6.3-20.2,9.5-32.7,9.5c-17.6,0-32.1-4.9-43.5-14.7
				c-11.4-9.8-17-23.3-17-40.6c0-16.1,5.9-29.4,17.6-39.7c11.7-10.4,25.8-15.6,42.3-15.6c17.2,0,30.4,4.9,39.5,14.5
				c9.1,9.7,13.7,21.6,13.7,35.6H240c0,5.4,0.4,10.9,1.2,16.5s2.4,11,4.7,16.2c2.3,5.2,5.6,9.4,9.8,12.6c4.2,3.2,9.5,4.8,15.9,4.8
				c9.2,0,16.4-2.6,21.7-7.7s9.4-11.6,12.3-19.4L309.2,281.9z M269.6,252.8c-0.2-1.6-0.3-3.6-0.3-5.8c-0.1-2.2-0.1-5.1-0.1-8.5
				c0-9.1-1.1-16-3.3-20.7c-2.2-4.7-6.1-7.1-11.6-7.1c-4.7,0-8,2.3-9.9,6.8c-1.9,4.6-3.1,11.5-3.9,20.9l-0.4,14.3H269.6z"/>
			<path class="st2" d="M377.7,311c7.2,0,15.1-5.1,23.7-15.4c8.7-10.3,15.4-20.5,20.4-30.7h2.9v50.6H311.2v-2l67.6-99.4l-12.1-0.4
				c-7.3,0-15.3,4.9-24.1,14.6c-8.7,9.7-15.6,19.6-20.7,29.8H319v-48.6h108.8v2l-67.4,99.4L377.7,311z"/>
		</g>
		<g>
			<path class="st2" d="M190,281.4c-4.2,11.2-10.9,20-20.2,26.3c-9.3,6.3-20.2,9.5-32.7,9.5c-17.6,0-32.1-4.9-43.5-14.7
				c-11.4-9.8-17-23.3-17-40.6c0-16.1,5.9-29.4,17.6-39.7c11.7-10.4,25.8-15.6,42.3-15.6c17.2,0,30.4,4.9,39.5,14.5
				c9.1,9.7,13.7,21.6,13.7,35.6h-68.7c0,5.4,0.4,10.9,1.2,16.5s2.4,11,4.7,16.2c2.3,5.2,5.6,9.4,9.8,12.6c4.2,3.2,9.5,4.8,15.9,4.8
				c9.2,0,16.4-2.6,21.7-7.7c5.3-5.1,9.4-11.6,12.3-19.4L190,281.4z M150.4,252.3c-0.2-1.6-0.3-3.6-0.3-5.8
				c-0.1-2.2-0.1-5.1-0.1-8.5c0-9.1-1.1-16-3.3-20.7c-2.2-4.7-6.1-7.1-11.6-7.1c-4.7,0-8,2.3-9.9,6.8c-1.9,4.6-3.1,11.5-3.9,20.9
				l-0.4,14.3H150.4z"/>
			<path class="st2" d="M308.7,281.4c-4.2,11.2-10.9,20-20.2,26.3c-9.3,6.3-20.2,9.5-32.7,9.5c-17.6,0-32.1-4.9-43.5-14.7
				c-11.4-9.8-17-23.3-17-40.6c0-16.1,5.9-29.4,17.6-39.7c11.7-10.4,25.8-15.6,42.3-15.6c17.2,0,30.4,4.9,39.5,14.5
				c9.1,9.7,13.7,21.6,13.7,35.6h-68.7c0,5.4,0.4,10.9,1.2,16.5s2.4,11,4.7,16.2c2.3,5.2,5.6,9.4,9.8,12.6c4.2,3.2,9.5,4.8,15.9,4.8
				c9.2,0,16.4-2.6,21.7-7.7s9.4-11.6,12.3-19.4L308.7,281.4z M269.1,252.3c-0.2-1.6-0.3-3.6-0.3-5.8c-0.1-2.2-0.1-5.1-0.1-8.5
				c0-9.1-1.1-16-3.3-20.7c-2.2-4.7-6.1-7.1-11.6-7.1c-4.7,0-8,2.3-9.9,6.8c-1.9,4.6-3.1,11.5-3.9,20.9l-0.4,14.3H269.1z"/>
			<path class="st2" d="M377.2,310.5c7.2,0,15.1-5.1,23.7-15.4c8.7-10.3,15.4-20.5,20.4-30.7h2.9V315H310.7v-2l67.6-99.4l-12.1-0.4
				c-7.3,0-15.3,4.9-24.1,14.6c-8.7,9.7-15.6,19.6-20.7,29.8h-2.9v-48.6h108.8v2l-67.4,99.4L377.2,310.5z"/>
		</g>
		<g>
			<path class="st2" d="M189.5,280.9c-4.2,11.2-10.9,20-20.2,26.3c-9.3,6.3-20.2,9.5-32.7,9.5c-17.6,0-32.1-4.9-43.5-14.7
				c-11.4-9.8-17-23.3-17-40.6c0-16.1,5.9-29.4,17.6-39.7c11.7-10.4,25.8-15.6,42.3-15.6c17.2,0,30.4,4.9,39.5,14.5
				c9.1,9.7,13.7,21.6,13.7,35.6h-68.7c0,5.4,0.4,10.9,1.2,16.5s2.4,11,4.7,16.2c2.3,5.2,5.6,9.4,9.8,12.6c4.2,3.2,9.5,4.8,15.9,4.8
				c9.2,0,16.4-2.6,21.7-7.7c5.3-5.1,9.4-11.6,12.3-19.4L189.5,280.9z M149.9,251.8c-0.2-1.6-0.3-3.6-0.3-5.8
				c-0.1-2.2-0.1-5.1-0.1-8.5c0-9.1-1.1-16-3.3-20.7c-2.2-4.7-6.1-7.1-11.6-7.1c-4.7,0-8,2.3-9.9,6.8c-1.9,4.6-3.1,11.5-3.9,20.9
				l-0.4,14.3H149.9z"/>
			<path class="st2" d="M308.2,280.9c-4.2,11.2-10.9,20-20.2,26.3c-9.3,6.3-20.2,9.5-32.7,9.5c-17.6,0-32.1-4.9-43.5-14.7
				c-11.4-9.8-17-23.3-17-40.6c0-16.1,5.9-29.4,17.6-39.7c11.7-10.4,25.8-15.6,42.3-15.6c17.2,0,30.4,4.9,39.5,14.5
				c9.1,9.7,13.7,21.6,13.7,35.6H239c0,5.4,0.4,10.9,1.2,16.5s2.4,11,4.7,16.2c2.3,5.2,5.6,9.4,9.8,12.6c4.2,3.2,9.5,4.8,15.9,4.8
				c9.2,0,16.4-2.6,21.7-7.7s9.4-11.6,12.3-19.4L308.2,280.9z M268.6,251.8c-0.2-1.6-0.3-3.6-0.3-5.8c-0.1-2.2-0.1-5.1-0.1-8.5
				c0-9.1-1.1-16-3.3-20.7c-2.2-4.7-6.1-7.1-11.6-7.1c-4.7,0-8,2.3-9.9,6.8c-1.9,4.6-3.1,11.5-3.9,20.9l-0.4,14.3H268.6z"/>
			<path class="st2" d="M376.7,310c7.2,0,15.1-5.1,23.7-15.4c8.7-10.3,15.4-20.5,20.4-30.7h2.9v50.6H310.2v-2l67.6-99.4l-12.1-0.4
				c-7.3,0-15.3,4.9-24.1,14.6c-8.7,9.7-15.6,19.6-20.7,29.8H318v-48.6h108.8v2l-67.4,99.4L376.7,310z"/>
		</g>
		<g>
			<path class="st2" d="M189,280.4c-4.2,11.2-10.9,20-20.2,26.3c-9.3,6.3-20.2,9.5-32.7,9.5c-17.6,0-32.1-4.9-43.5-14.7
				c-11.4-9.8-17-23.3-17-40.6c0-16.1,5.9-29.4,17.6-39.7c11.7-10.4,25.8-15.6,42.3-15.6c17.2,0,30.4,4.9,39.5,14.5
				c9.1,9.7,13.7,21.6,13.7,35.6h-68.7c0,5.4,0.4,10.9,1.2,16.5s2.4,11,4.7,16.2c2.3,5.2,5.6,9.4,9.8,12.6c4.2,3.2,9.5,4.8,15.9,4.8
				c9.2,0,16.4-2.6,21.7-7.7c5.3-5.1,9.4-11.6,12.3-19.4L189,280.4z M149.4,251.3c-0.2-1.6-0.3-3.6-0.3-5.8
				c-0.1-2.2-0.1-5.1-0.1-8.5c0-9.1-1.1-16-3.3-20.7c-2.2-4.7-6.1-7.1-11.6-7.1c-4.7,0-8,2.3-9.9,6.8c-1.9,4.6-3.1,11.5-3.9,20.9
				l-0.4,14.3H149.4z"/>
			<path class="st2" d="M307.7,280.4c-4.2,11.2-10.9,20-20.2,26.3c-9.3,6.3-20.2,9.5-32.7,9.5c-17.6,0-32.1-4.9-43.5-14.7
				c-11.4-9.8-17-23.3-17-40.6c0-16.1,5.9-29.4,17.6-39.7c11.7-10.4,25.8-15.6,42.3-15.6c17.2,0,30.4,4.9,39.5,14.5
				c9.1,9.7,13.7,21.6,13.7,35.6h-68.7c0,5.4,0.4,10.9,1.2,16.5s2.4,11,4.7,16.2c2.3,5.2,5.6,9.4,9.8,12.6c4.2,3.2,9.5,4.8,15.9,4.8
				c9.2,0,16.4-2.6,21.7-7.7s9.4-11.6,12.3-19.4L307.7,280.4z M268.1,251.3c-0.2-1.6-0.3-3.6-0.3-5.8c-0.1-2.2-0.1-5.1-0.1-8.5
				c0-9.1-1.1-16-3.3-20.7c-2.2-4.7-6.1-7.1-11.6-7.1c-4.7,0-8,2.3-9.9,6.8c-1.9,4.6-3.1,11.5-3.9,20.9l-0.4,14.3H268.1z"/>
			<path class="st2" d="M376.2,309.5c7.2,0,15.1-5.1,23.7-15.4c8.7-10.3,15.4-20.5,20.4-30.7h2.9V314H309.7v-2l67.6-99.4l-12.1-0.4
				c-7.3,0-15.3,4.9-24.1,14.6c-8.7,9.7-15.6,19.6-20.7,29.8h-2.9v-48.6h108.8v2l-67.4,99.4L376.2,309.5z"/>
		</g>
		<g>
			<path class="st2" d="M188.5,279.9c-4.2,11.2-10.9,20-20.2,26.3c-9.3,6.3-20.2,9.5-32.7,9.5c-17.6,0-32.1-4.9-43.5-14.7
				c-11.4-9.8-17-23.3-17-40.6c0-16.1,5.9-29.4,17.6-39.7c11.7-10.4,25.8-15.6,42.3-15.6c17.2,0,30.4,4.9,39.5,14.5
				c9.1,9.7,13.7,21.6,13.7,35.6h-68.7c0,5.4,0.4,10.9,1.2,16.5s2.4,11,4.7,16.2c2.3,5.2,5.6,9.4,9.8,12.6c4.2,3.2,9.5,4.8,15.9,4.8
				c9.2,0,16.4-2.6,21.7-7.7c5.3-5.1,9.4-11.6,12.3-19.4L188.5,279.9z M148.9,250.8c-0.2-1.6-0.3-3.6-0.3-5.8
				c-0.1-2.2-0.1-5.1-0.1-8.5c0-9.1-1.1-16-3.3-20.7c-2.2-4.7-6.1-7.1-11.6-7.1c-4.7,0-8,2.3-9.9,6.8c-1.9,4.6-3.1,11.5-3.9,20.9
				l-0.4,14.3H148.9z"/>
			<path class="st2" d="M307.2,279.9c-4.2,11.2-10.9,20-20.2,26.3c-9.3,6.3-20.2,9.5-32.7,9.5c-17.6,0-32.1-4.9-43.5-14.7
				c-11.4-9.8-17-23.3-17-40.6c0-16.1,5.9-29.4,17.6-39.7c11.7-10.4,25.8-15.6,42.3-15.6c17.2,0,30.4,4.9,39.5,14.5
				c9.1,9.7,13.7,21.6,13.7,35.6H238c0,5.4,0.4,10.9,1.2,16.5s2.4,11,4.7,16.2c2.3,5.2,5.6,9.4,9.8,12.6c4.2,3.2,9.5,4.8,15.9,4.8
				c9.2,0,16.4-2.6,21.7-7.7s9.4-11.6,12.3-19.4L307.2,279.9z M267.6,250.8c-0.2-1.6-0.3-3.6-0.3-5.8c-0.1-2.2-0.1-5.1-0.1-8.5
				c0-9.1-1.1-16-3.3-20.7c-2.2-4.7-6.1-7.1-11.6-7.1c-4.7,0-8,2.3-9.9,6.8c-1.9,4.6-3.1,11.5-3.9,20.9l-0.4,14.3H267.6z"/>
			<path class="st2" d="M375.7,309c7.2,0,15.1-5.1,23.7-15.4c8.7-10.3,15.4-20.5,20.4-30.7h2.9v50.6H309.2v-2l67.6-99.4l-12.1-0.4
				c-7.3,0-15.3,4.9-24.1,14.6c-8.7,9.7-15.6,19.6-20.7,29.8H317v-48.6h108.8v2l-67.4,99.4L375.7,309z"/>
		</g>
		<g>
			<path class="st2" d="M188,279.4c-4.2,11.2-10.9,20-20.2,26.3c-9.3,6.3-20.2,9.5-32.7,9.5c-17.6,0-32.1-4.9-43.5-14.7
				c-11.4-9.8-17-23.3-17-40.6c0-16.1,5.9-29.4,17.6-39.7c11.7-10.4,25.8-15.6,42.3-15.6c17.2,0,30.4,4.9,39.5,14.5
				c9.1,9.7,13.7,21.6,13.7,35.6h-68.7c0,5.4,0.4,10.9,1.2,16.5s2.4,11,4.7,16.2c2.3,5.2,5.6,9.4,9.8,12.6c4.2,3.2,9.5,4.8,15.9,4.8
				c9.2,0,16.4-2.6,21.7-7.7c5.3-5.1,9.4-11.6,12.3-19.4L188,279.4z M148.4,250.3c-0.2-1.6-0.3-3.6-0.3-5.8
				c-0.1-2.2-0.1-5.1-0.1-8.5c0-9.1-1.1-16-3.3-20.7c-2.2-4.7-6.1-7.1-11.6-7.1c-4.7,0-8,2.3-9.9,6.8c-1.9,4.6-3.1,11.5-3.9,20.9
				l-0.4,14.3H148.4z"/>
			<path class="st2" d="M306.7,279.4c-4.2,11.2-10.9,20-20.2,26.3c-9.3,6.3-20.2,9.5-32.7,9.5c-17.6,0-32.1-4.9-43.5-14.7
				c-11.4-9.8-17-23.3-17-40.6c0-16.1,5.9-29.4,17.6-39.7c11.7-10.4,25.8-15.6,42.3-15.6c17.2,0,30.4,4.9,39.5,14.5
				c9.1,9.7,13.7,21.6,13.7,35.6h-68.7c0,5.4,0.4,10.9,1.2,16.5s2.4,11,4.7,16.2c2.3,5.2,5.6,9.4,9.8,12.6c4.2,3.2,9.5,4.8,15.9,4.8
				c9.2,0,16.4-2.6,21.7-7.7s9.4-11.6,12.3-19.4L306.7,279.4z M267.1,250.3c-0.2-1.6-0.3-3.6-0.3-5.8c-0.1-2.2-0.1-5.1-0.1-8.5
				c0-9.1-1.1-16-3.3-20.7c-2.2-4.7-6.1-7.1-11.6-7.1c-4.7,0-8,2.3-9.9,6.8c-1.9,4.6-3.1,11.5-3.9,20.9l-0.4,14.3H267.1z"/>
			<path class="st2" d="M375.2,308.5c7.2,0,15.1-5.1,23.7-15.4c8.7-10.3,15.4-20.5,20.4-30.7h2.9V313H308.7v-2l67.6-99.4l-12.1-0.4
				c-7.3,0-15.3,4.9-24.1,14.6c-8.7,9.7-15.6,19.6-20.7,29.8h-2.9v-48.6h108.8v2l-67.4,99.4L375.2,308.5z"/>
		</g>
		<g>
			<path class="st2" d="M187.5,278.9c-4.2,11.2-10.9,20-20.2,26.3c-9.3,6.3-20.2,9.5-32.7,9.5c-17.6,0-32.1-4.9-43.5-14.7
				c-11.4-9.8-17-23.3-17-40.6c0-16.1,5.9-29.4,17.6-39.7c11.7-10.4,25.8-15.6,42.3-15.6c17.2,0,30.4,4.9,39.5,14.5
				c9.1,9.7,13.7,21.6,13.7,35.6h-68.7c0,5.4,0.4,10.9,1.2,16.5s2.4,11,4.7,16.2c2.3,5.2,5.6,9.4,9.8,12.6c4.2,3.2,9.5,4.8,15.9,4.8
				c9.2,0,16.4-2.6,21.7-7.7c5.3-5.1,9.4-11.6,12.3-19.4L187.5,278.9z M147.9,249.8c-0.2-1.6-0.3-3.6-0.3-5.8
				c-0.1-2.2-0.1-5.1-0.1-8.5c0-9.1-1.1-16-3.3-20.7c-2.2-4.7-6.1-7.1-11.6-7.1c-4.7,0-8,2.3-9.9,6.8c-1.9,4.6-3.1,11.5-3.9,20.9
				l-0.4,14.3H147.9z"/>
			<path class="st2" d="M306.2,278.9c-4.2,11.2-10.9,20-20.2,26.3c-9.3,6.3-20.2,9.5-32.7,9.5c-17.6,0-32.1-4.9-43.5-14.7
				c-11.4-9.8-17-23.3-17-40.6c0-16.1,5.9-29.4,17.6-39.7c11.7-10.4,25.8-15.6,42.3-15.6c17.2,0,30.4,4.9,39.5,14.5
				c9.1,9.7,13.7,21.6,13.7,35.6H237c0,5.4,0.4,10.9,1.2,16.5s2.4,11,4.7,16.2c2.3,5.2,5.6,9.4,9.8,12.6c4.2,3.2,9.5,4.8,15.9,4.8
				c9.2,0,16.4-2.6,21.7-7.7s9.4-11.6,12.3-19.4L306.2,278.9z M266.6,249.8c-0.2-1.6-0.3-3.6-0.3-5.8c-0.1-2.2-0.1-5.1-0.1-8.5
				c0-9.1-1.1-16-3.3-20.7c-2.2-4.7-6.1-7.1-11.6-7.1c-4.7,0-8,2.3-9.9,6.8c-1.9,4.6-3.1,11.5-3.9,20.9l-0.4,14.3H266.6z"/>
			<path class="st2" d="M374.7,308c7.2,0,15.1-5.1,23.7-15.4c8.7-10.3,15.4-20.5,20.4-30.7h2.9v50.6H308.2v-2l67.6-99.4l-12.1-0.4
				c-7.3,0-15.3,4.9-24.1,14.6c-8.7,9.7-15.6,19.6-20.7,29.8H316v-48.6h108.8v2l-67.4,99.4L374.7,308z"/>
		</g>
	</g>
	<g>
		<path class="st1" d="M187.5,278.9c-4.2,11.2-10.9,20-20.2,26.3c-9.3,6.3-20.2,9.5-32.7,9.5c-17.6,0-32.1-4.9-43.5-14.7
			c-11.4-9.8-17-23.3-17-40.6c0-16.1,5.9-29.4,17.6-39.7c11.7-10.4,25.8-15.6,42.3-15.6c17.2,0,30.4,4.9,39.5,14.5
			c9.1,9.7,13.7,21.6,13.7,35.6h-68.7c0,5.4,0.4,10.9,1.2,16.5s2.4,11,4.7,16.2c2.3,5.2,5.6,9.4,9.8,12.6c4.2,3.2,9.5,4.8,15.9,4.8
			c9.2,0,16.4-2.6,21.7-7.7c5.3-5.1,9.4-11.6,12.3-19.4L187.5,278.9z M147.9,249.8c-0.2-1.6-0.3-3.6-0.3-5.8
			c-0.1-2.2-0.1-5.1-0.1-8.5c0-9.1-1.1-16-3.3-20.7c-2.2-4.7-6.1-7.1-11.6-7.1c-4.7,0-8,2.3-9.9,6.8c-1.9,4.6-3.1,11.5-3.9,20.9
			l-0.4,14.3H147.9z"/>
		<path class="st1" d="M306.2,278.9c-4.2,11.2-10.9,20-20.2,26.3c-9.3,6.3-20.2,9.5-32.7,9.5c-17.6,0-32.1-4.9-43.5-14.7
			c-11.4-9.8-17-23.3-17-40.6c0-16.1,5.9-29.4,17.6-39.7c11.7-10.4,25.8-15.6,42.3-15.6c17.2,0,30.4,4.9,39.5,14.5
			c9.1,9.7,13.7,21.6,13.7,35.6H237c0,5.4,0.4,10.9,1.2,16.5s2.4,11,4.7,16.2c2.3,5.2,5.6,9.4,9.8,12.6c4.2,3.2,9.5,4.8,15.9,4.8
			c9.2,0,16.4-2.6,21.7-7.7s9.4-11.6,12.3-19.4L306.2,278.9z M266.6,249.8c-0.2-1.6-0.3-3.6-0.3-5.8c-0.1-2.2-0.1-5.1-0.1-8.5
			c0-9.1-1.1-16-3.3-20.7c-2.2-4.7-6.1-7.1-11.6-7.1c-4.7,0-8,2.3-9.9,6.8c-1.9,4.6-3.1,11.5-3.9,20.9l-0.4,14.3H266.6z"/>
		<path class="st1" d="M374.7,308c7.2,0,15.1-5.1,23.7-15.4c8.7-10.3,15.4-20.5,20.4-30.7h2.9v50.6H308.2v-2l67.6-99.4l-12.1-0.4
			c-7.3,0-15.3,4.9-24.1,14.6c-8.7,9.7-15.6,19.6-20.7,29.8H316v-48.6h108.8v2l-67.4,99.4L374.7,308z"/>
	</g>
</g>
<g>
</g>
<g>
</g>
<g>
</g>
<g>
</g>
<g>
</g>
</svg>
